999
dxflib 2.2.0.0
  0
SECTION
  2
HEADER
  9
$ACADVER
  1
AC1015
  9
$HANDSEED
  5
FFFF
  9
$INSUNITS
 70
4
  9
$DIMEXE
 40
1.25
  9
$TEXTSTYLE
  7
Standard
  9
$LIMMIN
 10
0.0
 20
0.0
  0
ENDSEC
  0
SECTION
  2
TABLES
  0
TABLE
  2
VPORT
  5
8
100
AcDbSymbolTable
 70
1
  0
VPORT
  5
30
100
AcDbSymbolTableRecord
100
AcDbViewportTableRecord
  2
*Active
 70
0
 10
0.0
 20
0.0
 11
1.0
 21
1.0
 12
286.30555555555549
 22
148.5
 13
0.0
 23
0.0
 14
10.0
 24
10.0
 15
10.0
 25
10.0
 16
0.0
 26
0.0
 36
1.0
 17
0.0
 27
0.0
 37
0.0
 40
297.0
 41
1.92798353909465
 42
50.0
 43
0.0
 44
0.0
 50
0.0
 51
0.0
 71
0
 72
100
 73
1
 74
3
 75
1
 76
1
 77
0
 78
0
281
0
 65
1
110
0.0
120
0.0
130
0.0
111
1.0
121
0.0
131
0.0
112
0.0
122
1.0
132
0.0
 79
0
146
0.0
  0
ENDTAB
  0
TABLE
  2
LTYPE
  5
5
100
AcDbSymbolTable
 70
25
  0
LTYPE
  5
14
100
AcDbSymbolTableRecord
100
AcDbLinetypeTableRecord
  2
BYBLOCK
 70
0
  3

 72
65
 73
0
 40
0.0
  0
LTYPE
  5
15
100
AcDbSymbolTableRecord
100
AcDbLinetypeTableRecord
  2
BYLAYER
 70
0
  3

 72
65
 73
0
 40
0.0
  0
LTYPE
  5
16
100
AcDbSymbolTableRecord
100
AcDbLinetypeTableRecord
  2
CONTINUOUS
 70
0
  3
Solid line
 72
65
 73
0
 40
0.0
  0
LTYPE
  5
31
100
AcDbSymbolTableRecord
100
AcDbLinetypeTableRecord
  2
ACAD_ISO02W100
 70
0
  3
ISO Dashed __ __ __ __ __ __ __ __ __ __ _
 72
65
 73
2
 40
15.0
 49
12.0
 74
0
 49
-3.0
 74
0
  0
LTYPE
  5
32
100
AcDbSymbolTableRecord
100
AcDbLinetypeTableRecord
  2
ACAD_ISO03W100
 70
0
  3
ISO Dashed with Distance __    __    __    _
 72
65
 73
2
 40
30.0
 49
12.0
 74
0
 49
-18.0
 74
0
  0
LTYPE
  5
33
100
AcDbSymbolTableRecord
100
AcDbLinetypeTableRecord
  2
ACAD_ISO04W100
 70
0
  3
ISO Long Dashed Dotted ____ . ____ . __
 72
65
 73
4
 40
30.0
 49
24.0
 74
0
 49
-3.0
 74
0
 49
0.0
 74
0
 49
-3.0
 74
0
  0
LTYPE
  5
34
100
AcDbSymbolTableRecord
100
AcDbLinetypeTableRecord
  2
ACAD_ISO05W100
 70
0
  3
ISO Long Dashed Double Dotted ____ .. __
 72
65
 73
6
 40
33.0
 49
24.0
 74
0
 49
-3.0
 74
0
 49
0.0
 74
0
 49
-3.0
 74
0
 49
0.0
 74
0
 49
-3.0
 74
0
  0
LTYPE
  5
35
100
AcDbSymbolTableRecord
100
AcDbLinetypeTableRecord
  2
BORDER
 70
0
  3
Border __ __ . __ __ . __ __ . __ __ . __ __ .
 72
65
 73
6
 40
44.450000000000003
 49
12.699999999999999
 74
0
 49
-6.3499999999999996
 74
0
 49
12.699999999999999
 74
0
 49
-6.3499999999999996
 74
0
 49
0.0
 74
0
 49
-6.3499999999999996
 74
0
  0
LTYPE
  5
36
100
AcDbSymbolTableRecord
100
AcDbLinetypeTableRecord
  2
BORDER2
 70
0
  3
Border (.5x) __.__.__.__.__.__.__.__.__.__.__.
 72
65
 73
6
 40
22.225000000000001
 49
6.3499999999999996
 74
0
 49
-3.1749999999999998
 74
0
 49
6.3499999999999996
 74
0
 49
-3.1749999999999998
 74
0
 49
0.0
 74
0
 49
-3.1749999999999998
 74
0
  0
LTYPE
  5
37
100
AcDbSymbolTableRecord
100
AcDbLinetypeTableRecord
  2
BORDERX2
 70
0
  3
Border (2x) ____  ____  .  ____  ____  .  ___
 72
65
 73
6
 40
88.900000000000006
 49
25.399999999999999
 74
0
 49
-12.699999999999999
 74
0
 49
25.399999999999999
 74
0
 49
-12.699999999999999
 74
0
 49
0.0
 74
0
 49
-12.699999999999999
 74
0
  0
LTYPE
  5
38
100
AcDbSymbolTableRecord
100
AcDbLinetypeTableRecord
  2
CENTER
 70
0
  3
Center ____ _ ____ _ ____ _ ____ _ ____ _ ____
 72
65
 73
4
 40
50.799999999999997
 49
31.75
 74
0
 49
-6.3499999999999996
 74
0
 49
6.3499999999999996
 74
0
 49
-6.3499999999999996
 74
0
  0
LTYPE
  5
39
100
AcDbSymbolTableRecord
100
AcDbLinetypeTableRecord
  2
CENTER2
 70
0
  3
Center (.5x) ___ _ ___ _ ___ _ ___ _ ___ _ ___
 72
65
 73
4
 40
28.574999999999999
 49
19.050000000000001
 74
0
 49
-3.1749999999999998
 74
0
 49
3.1749999999999998
 74
0
 49
-3.1749999999999998
 74
0
  0
LTYPE
  5
3A
100
AcDbSymbolTableRecord
100
AcDbLinetypeTableRecord
  2
CENTERX2
 70
0
  3
Center (2x) ________  __  ________  __  _____
 72
65
 73
4
 40
101.59999999999999
 49
63.5
 74
0
 49
-12.699999999999999
 74
0
 49
12.699999999999999
 74
0
 49
-12.699999999999999
 74
0
  0
LTYPE
  5
3B
100
AcDbSymbolTableRecord
100
AcDbLinetypeTableRecord
  2
DASHDOT
 70
0
  3
Dash dot __ . __ . __ . __ . __ . __ . __ . __
 72
65
 73
4
 40
25.399999999999999
 49
12.699999999999999
 74
0
 49
-6.3499999999999996
 74
0
 49
0.0
 74
0
 49
-6.3499999999999996
 74
0
  0
LTYPE
  5
3C
100
AcDbSymbolTableRecord
100
AcDbLinetypeTableRecord
  2
DASHDOT2
 70
0
  3
Dash dot (.5x) _._._._._._._._._._._._._._._.
 72
65
 73
4
 40
12.699999999999999
 49
6.3499999999999996
 74
0
 49
-3.1749999999999998
 74
0
 49
0.0
 74
0
 49
-3.1749999999999998
 74
0
  0
LTYPE
  5
3D
100
AcDbSymbolTableRecord
100
AcDbLinetypeTableRecord
  2
DASHDOTX2
 70
0
  3
Dash dot (2x) ____  .  ____  .  ____  .  ___
 72
65
 73
4
 40
50.799999999999997
 49
25.399999999999999
 74
0
 49
-12.699999999999999
 74
0
 49
0.0
 74
0
 49
-12.699999999999999
 74
0
  0
LTYPE
  5
3E
100
AcDbSymbolTableRecord
100
AcDbLinetypeTableRecord
  2
DASHED
 70
0
  3
Dashed __ __ __ __ __ __ __ __ __ __ __ __ __ _
 72
65
 73
2
 40
19.050000000000001
 49
12.699999999999999
 74
0
 49
-6.3499999999999996
 74
0
  0
LTYPE
  5
3F
100
AcDbSymbolTableRecord
100
AcDbLinetypeTableRecord
  2
DASHED2
 70
0
  3
Dashed (.5x) _ _ _ _ _ _ _ _ _ _ _ _ _ _ _ _ _
 72
65
 73
2
 40
9.5250000000000004
 49
6.3499999999999996
 74
0
 49
-3.1749999999999998
 74
0
  0
LTYPE
  5
40
100
AcDbSymbolTableRecord
100
AcDbLinetypeTableRecord
  2
DASHEDX2
 70
0
  3
Dashed (2x) ____  ____  ____  ____  ____  ___
 72
65
 73
2
 40
38.100000000000001
 49
25.399999999999999
 74
0
 49
-12.699999999999999
 74
0
  0
LTYPE
  5
41
100
AcDbSymbolTableRecord
100
AcDbLinetypeTableRecord
  2
DIVIDE
 70
0
  3
Divide ____ . . ____ . . ____ . . ____ . . ____
 72
65
 73
6
 40
31.75
 49
12.699999999999999
 74
0
 49
-6.3499999999999996
 74
0
 49
0.0
 74
0
 49
-6.3499999999999996
 74
0
 49
0.0
 74
0
 49
-6.3499999999999996
 74
0
  0
LTYPE
  5
42
100
AcDbSymbolTableRecord
100
AcDbLinetypeTableRecord
  2
DIVIDE2
 70
0
  3
Divide (.5x) __..__..__..__..__..__..__..__.._
 72
65
 73
6
 40
15.875
 49
6.3499999999999996
 74
0
 49
-3.1749999999999998
 74
0
 49
0.0
 74
0
 49
-3.1749999999999998
 74
0
 49
0.0
 74
0
 49
-3.1749999999999998
 74
0
  0
LTYPE
  5
43
100
AcDbSymbolTableRecord
100
AcDbLinetypeTableRecord
  2
DIVIDEX2
 70
0
  3
Divide (2x) ________  .  .  ________  .  .  _
 72
65
 73
6
 40
63.5
 49
25.399999999999999
 74
0
 49
-12.699999999999999
 74
0
 49
0.0
 74
0
 49
-12.699999999999999
 74
0
 49
0.0
 74
0
 49
-12.699999999999999
 74
0
  0
LTYPE
  5
44
100
AcDbSymbolTableRecord
100
AcDbLinetypeTableRecord
  2
DOT
 70
0
  3
Dot . . . . . . . . . . . . . . . . . . . . . .
 72
65
 73
2
 40
6.3499999999999996
 49
0.0
 74
0
 49
-6.3499999999999996
 74
0
  0
LTYPE
  5
45
100
AcDbSymbolTableRecord
100
AcDbLinetypeTableRecord
  2
DOT2
 70
0
  3
Dot (.5x) .....................................
 72
65
 73
2
 40
3.1749999999999998
 49
0.0
 74
0
 49
-3.1749999999999998
 74
0
  0
LTYPE
  5
46
100
AcDbSymbolTableRecord
100
AcDbLinetypeTableRecord
  2
DOTX2
 70
0
  3
Dot (2x) .  .  .  .  .  .  .  .  .  .  .  .  .
 72
65
 73
2
 40
12.699999999999999
 49
0.0
 74
0
 49
-12.699999999999999
 74
0
  0
ENDTAB
  0
TABLE
  2
LAYER
  5
2
100
AcDbSymbolTable
 70
10
  0
LAYER
  5
10
100
AcDbSymbolTableRecord
100
AcDbLayerTableRecord
  2
0
 70
0
 62
250
  6
CONTINUOUS
370
100
390
F
  0
LAYER
  5
47
100
AcDbSymbolTableRecord
100
AcDbLayerTableRecord
  2
color#00000000
 70
0
 62
7
  6
CONTINUOUS
370
100
390
F
  0
LAYER
  5
48
100
AcDbSymbolTableRecord
100
AcDbLayerTableRecord
  2
color#f03800ff
 70
0
 62
7
  6
CONTINUOUS
370
100
390
F
  0
LAYER
  5
49
100
AcDbSymbolTableRecord
100
AcDbLayerTableRecord
  2
color#cd0000ff
 70
0
 62
7
  6
CONTINUOUS
370
100
390
F
  0
LAYER
  5
4A
100
AcDbSymbolTableRecord
100
AcDbLayerTableRecord
  2
color#ff6c6cff
 70
0
 62
7
  6
CONTINUOUS
370
100
390
F
  0
LAYER
  5
4B
100
AcDbSymbolTableRecord
100
AcDbLayerTableRecord
  2
color#4f575cff
 70
0
 62
7
  6
CONTINUOUS
370
100
390
F
  0
LAYER
  5
4C
100
AcDbSymbolTableRecord
100
AcDbLayerTableRecord
  2
color#b1bbe8ff
 70
0
 62
7
  6
CONTINUOUS
370
100
390
F
  0
LAYER
  5
4D
100
AcDbSymbolTableRecord
100
AcDbLayerTableRecord
  2
color#cbd7f1ff
 70
0
 62
7
  6
CONTINUOUS
370
100
390
F
  0
LAYER
  5
4E
100
AcDbSymbolTableRecord
100
AcDbLayerTableRecord
  2
color#93261251
 70
0
 62
7
  6
CONTINUOUS
370
100
390
F
  0
LAYER
  5
4F
100
AcDbSymbolTableRecord
100
AcDbLayerTableRecord
  2
color#c57d89f9
 70
0
 62
7
  6
CONTINUOUS
370
100
390
F
  0
ENDTAB
  0
TABLE
  2
STYLE
  5
3
100
AcDbSymbolTable
 70
1
  0
STYLE
  5
11
100
AcDbSymbolTableRecord
100
AcDbTextStyleTableRecord
  2
Standard
 70
0
 40
0.0
 41
0.75
 50
0.0
 71
0
 42
2.5
  3
txt
  4

  0
ENDTAB
  0
TABLE
  2
VIEW
  5
6
100
AcDbSymbolTable
 70
0
  0
ENDTAB
  0
TABLE
  2
UCS
  5
7
100
AcDbSymbolTable
 70
0
  0
ENDTAB
  0
TABLE
  2
APPID
  5
9
100
AcDbSymbolTable
 70
1
  0
APPID
  5
12
100
AcDbSymbolTableRecord
100
AcDbRegAppTableRecord
  2
ACAD
 70
0
  0
ENDTAB
  0
TABLE
  2
DIMSTYLE
  5
A
100
AcDbSymbolTable
 70
1
100
AcDbDimStyleTable
 71
0
  0
DIMSTYLE
105
27
100
AcDbSymbolTableRecord
100
AcDbDimStyleTableRecord
  2
Standard
 41
1.0
 42
1.0
 43
3.75
 44
1.0
 70
0
 73
0
 74
0
 77
1
 78
8
140
1.0
141
2.5
143
0.03937007874016
147
1.0
171
3
172
1
271
2
272
2
274
3
278
44
283
0
284
8
340
11
  0
ENDTAB
  0
TABLE
  2
BLOCK_RECORD
  5
1
100
AcDbSymbolTable
 70
1
  0
BLOCK_RECORD
  5
1F
100
AcDbSymbolTableRecord
100
AcDbBlockTableRecord
  2
*Model_Space
340
22
  0
BLOCK_RECORD
  5
1B
100
AcDbSymbolTableRecord
100
AcDbBlockTableRecord
  2
*Paper_Space
340
1E
  0
BLOCK_RECORD
  5
23
100
AcDbSymbolTableRecord
100
AcDbBlockTableRecord
  2
*Paper_Space0
340
26
  0
ENDTAB
  0
ENDSEC
  0
SECTION
  2
BLOCKS
  0
BLOCK
  5
20
100
AcDbEntity
  8
0
100
AcDbBlockBegin
  2
*Model_Space
 70
0
 10
0.0
 20
0.0
 30
0.0
  3
*Model_Space
  1

  0
ENDBLK
  5
21
100
AcDbEntity
  8
0
100
AcDbBlockEnd
  0
BLOCK
  5
1C
100
AcDbEntity
 67
1
  8
0
100
AcDbBlockBegin
  2
*Paper_Space
 70
0
 10
0.0
 20
0.0
 30
0.0
  3
*Paper_Space
  1

  0
ENDBLK
  5
1D
100
AcDbEntity
 67
1
  8
0
100
AcDbBlockEnd
  0
BLOCK
  5
24
100
AcDbEntity
  8
0
100
AcDbBlockBegin
  2
*Paper_Space0
 70
0
 10
0.0
 20
0.0
 30
0.0
  3
*Paper_Space0
  1

  0
ENDBLK
  5
25
100
AcDbEntity
  8
0
100
AcDbBlockEnd
  0
ENDSEC
  0
SECTION
  2
ENTITIES
  0
LINE
  5
50
100
AcDbEntity
100
AcDbLine
  8
color#4f575cff
 62
256
370
-1
  6
BYLAYER
 10
2.7495757453048144
 20
7.111096808069191
 30
0.0
 11
2.7626878045998158
 21
7.1243216392062747
 31
0.0
  0
LINE
  5
51
100
AcDbEntity
100
AcDbLine
  8
color#4f575cff
 62
256
370
-1
  6
BYLAYER
 10
2.7626878045998158
 20
7.1243216392062747
 30
0.0
 11
2.7761903321559398
 21
7.1371396965375942
 31
0.0
  0
LINE
  5
52
100
AcDbEntity
100
AcDbLine
  8
color#4f575cff
 62
256
370
-1
  6
BYLAYER
 10
2.7761903321559398
 20
7.1371396965375942
 30
0.0
 11
2.7900689924882549
 21
7.1495448668128736
 31
0.0
  0
LINE
  5
53
100
AcDbEntity
100
AcDbLine
  8
color#4f575cff
 62
256
370
-1
  6
BYLAYER
 10
2.7900689924882549
 20
7.1495448668128736
 30
0.0
 11
2.8043094501118246
 21
7.1615310367818301
 31
0.0
  0
LINE
  5
54
100
AcDbEntity
100
AcDbLine
  8
color#4f575cff
 62
256
370
-1
  6
BYLAYER
 10
2.8043094501118246
 20
7.1615310367818301
 30
0.0
 11
2.8188973695417192
 21
7.1730920931941942
 31
0.0
  0
LINE
  5
55
100
AcDbEntity
100
AcDbLine
  8
color#4f575cff
 62
256
370
-1
  6
BYLAYER
 10
2.8188973695417192
 20
7.1730920931941942
 30
0.0
 11
2.8338184152930022
 21
7.1842219227996846
 31
0.0
  0
LINE
  5
56
100
AcDbEntity
100
AcDbLine
  8
color#4f575cff
 62
256
370
-1
  6
BYLAYER
 10
2.8338184152930022
 20
7.1842219227996846
 30
0.0
 11
2.8490582518807406
 21
7.1949144123480266
 31
0.0
  0
LINE
  5
57
100
AcDbEntity
100
AcDbLine
  8
color#4f575cff
 62
256
370
-1
  6
BYLAYER
 10
2.8490582518807406
 20
7.1949144123480266
 30
0.0
 11
2.8646025438200016
 21
7.2051634485889435
 31
0.0
  0
LINE
  5
58
100
AcDbEntity
100
AcDbLine
  8
color#4f575cff
 62
256
370
-1
  6
BYLAYER
 10
2.8646025438200016
 20
7.2051634485889435
 30
0.0
 11
2.8804369556258522
 21
7.2149629182721551
 31
0.0
  0
LINE
  5
59
100
AcDbEntity
100
AcDbLine
  8
color#4f575cff
 62
256
370
-1
  6
BYLAYER
 10
2.8804369556258522
 20
7.2149629182721551
 30
0.0
 11
2.8965471518133565
 21
7.2243067081473926
 31
0.0
  0
LINE
  5
5A
100
AcDbEntity
100
AcDbLine
  8
color#4f575cff
 62
256
370
-1
  6
BYLAYER
 10
2.8965471518133565
 20
7.2243067081473926
 30
0.0
 11
2.9129187968975838
 21
7.2331887049643724
 31
0.0
  0
LINE
  5
5B
100
AcDbEntity
100
AcDbLine
  8
color#4f575cff
 62
256
370
-1
  6
BYLAYER
 10
2.9129187968975838
 20
7.2331887049643724
 30
0.0
 11
2.9295375553936003
 21
7.2416027954728204
 31
0.0
  0
LINE
  5
5C
100
AcDbEntity
100
AcDbLine
  8
color#4f575cff
 62
256
370
-1
  6
BYLAYER
 10
2.9295375553936003
 20
7.2416027954728204
 30
0.0
 11
2.9463890918164695
 21
7.2495428664224573
 31
0.0
  0
LINE
  5
5D
100
AcDbEntity
100
AcDbLine
  8
color#4f575cff
 62
256
370
-1
  6
BYLAYER
 10
2.9463890918164695
 20
7.2495428664224573
 30
0.0
 11
2.9634590706812607
 21
7.2570028045630099
 31
0.0
  0
LINE
  5
5E
100
AcDbEntity
100
AcDbLine
  8
color#4f575cff
 62
256
370
-1
  6
BYLAYER
 10
2.9634590706812607
 20
7.2570028045630099
 30
0.0
 11
2.9807331565030397
 21
7.2639764966442009
 31
0.0
  0
LINE
  5
5F
100
AcDbEntity
100
AcDbLine
  8
color#4f575cff
 62
256
370
-1
  6
BYLAYER
 10
2.9807331565030397
 20
7.2639764966442009
 30
0.0
 11
2.9981970137968736
 21
7.2704578294157542
 31
0.0
  0
LINE
  5
60
100
AcDbEntity
100
AcDbLine
  8
color#4f575cff
 62
256
370
-1
  6
BYLAYER
 10
2.9981970137968736
 20
7.2704578294157542
 30
0.0
 11
3.0158363070778269
 21
7.2764406896273899
 31
0.0
  0
LINE
  5
61
100
AcDbEntity
100
AcDbLine
  8
color#4f575cff
 62
256
370
-1
  6
BYLAYER
 10
3.0158363070778269
 20
7.2764406896273899
 30
0.0
 11
3.0336367008609684
 21
7.2819189640288329
 31
0.0
  0
LINE
  5
62
100
AcDbEntity
100
AcDbLine
  8
color#4f575cff
 62
256
370
-1
  6
BYLAYER
 10
3.0336367008609684
 20
7.2819189640288329
 30
0.0
 11
3.0515838596613634
 21
7.2868865393698075
 31
0.0
  0
LINE
  5
63
100
AcDbEntity
100
AcDbLine
  8
color#4f575cff
 62
256
370
-1
  6
BYLAYER
 10
3.0515838596613634
 20
7.2868865393698075
 30
0.0
 11
3.069663447994079
 21
7.2913373024000361
 31
0.0
  0
LINE
  5
64
100
AcDbEntity
100
AcDbLine
  8
color#4f575cff
 62
256
370
-1
  6
BYLAYER
 10
3.069663447994079
 20
7.2913373024000361
 30
0.0
 11
3.087861130374181
 21
7.2952651398692421
 31
0.0
  0
LINE
  5
65
100
AcDbEntity
100
AcDbLine
  8
color#4f575cff
 62
256
370
-1
  6
BYLAYER
 10
3.087861130374181
 20
7.2952651398692421
 30
0.0
 11
3.1061625713167365
 21
7.2986639385271497
 31
0.0
  0
LINE
  5
66
100
AcDbEntity
100
AcDbLine
  8
color#4f575cff
 62
256
370
-1
  6
BYLAYER
 10
3.1061625713167365
 20
7.2986639385271497
 30
0.0
 11
3.1245534353368116
 21
7.3015275851234822
 31
0.0
  0
LINE
  5
67
100
AcDbEntity
100
AcDbLine
  8
color#4f575cff
 62
256
370
-1
  6
BYLAYER
 10
3.1245534353368116
 20
7.3015275851234822
 30
0.0
 11
3.1430193869494722
 21
7.3038499664079595
 31
0.0
  0
LINE
  5
68
100
AcDbEntity
100
AcDbLine
  8
color#4f575cff
 62
256
370
-1
  6
BYLAYER
 10
3.1430193869494722
 20
7.3038499664079595
 30
0.0
 11
3.1615460906697859
 21
7.3056249691303119
 31
0.0
  0
LINE
  5
69
100
AcDbEntity
100
AcDbLine
  8
color#4f575cff
 62
256
370
-1
  6
BYLAYER
 10
3.1615460906697859
 20
7.3056249691303119
 30
0.0
 11
3.1801192110128191
 21
7.3068464800402557
 31
0.0
  0
LINE
  5
6A
100
AcDbEntity
100
AcDbLine
  8
color#4f575cff
 62
256
370
-1
  6
BYLAYER
 10
3.1801192110128191
 20
7.3068464800402557
 30
0.0
 11
3.1987244124936374
 21
7.3075083858875178
 31
0.0
  0
LINE
  5
6B
100
AcDbEntity
100
AcDbLine
  8
color#4f575cff
 62
256
370
-1
  6
BYLAYER
 10
3.1987244124936374
 20
7.3075083858875178
 30
0.0
 11
3.2173473596273086
 21
7.3076045734218216
 31
0.0
  0
LINE
  5
6C
100
AcDbEntity
100
AcDbLine
  8
color#4f575cff
 62
256
370
-1
  6
BYLAYER
 10
3.2173473596273086
 20
7.3076045734218216
 30
0.0
 11
3.2359737169288976
 21
7.3071289293928867
 31
0.0
  0
LINE
  5
6D
100
AcDbEntity
100
AcDbLine
  8
color#4f575cff
 62
256
370
-1
  6
BYLAYER
 10
3.2359737169288976
 20
7.3071289293928867
 30
0.0
 11
4.8053888645116327
 21
7.3084669450732154
 31
0.0
  0
LINE
  5
6E
100
AcDbEntity
100
AcDbLine
  8
color#4f575cff
 62
256
370
-1
  6
BYLAYER
 10
4.8053888645116327
 20
7.3084669450732154
 30
0.0
 11
4.9989151446371904
 21
7.3069327237671704
 31
0.0
  0
LINE
  5
6F
100
AcDbEntity
100
AcDbLine
  8
color#4f575cff
 62
256
370
-1
  6
BYLAYER
 10
4.9989151446371904
 20
7.3069327237671704
 30
0.0
 11
5.0349819351368392
 21
7.3040877041844299
 31
0.0
  0
LINE
  5
70
100
AcDbEntity
100
AcDbLine
  8
color#4f575cff
 62
256
370
-1
  6
BYLAYER
 10
5.0349819351368392
 20
7.3040877041844299
 30
0.0
 11
5.0588909513285358
 21
7.3011978067186929
 31
0.0
  0
LINE
  5
71
100
AcDbEntity
100
AcDbLine
  8
color#4f575cff
 62
256
370
-1
  6
BYLAYER
 10
5.0588909513285358
 20
7.3011978067186929
 30
0.0
 11
5.0826656863787099
 21
7.2973681192425106
 31
0.0
  0
LINE
  5
72
100
AcDbEntity
100
AcDbLine
  8
color#4f575cff
 62
256
370
-1
  6
BYLAYER
 10
5.0826656863787099
 20
7.2973681192425106
 30
0.0
 11
5.1062839638630146
 21
7.2924741710570355
 31
0.0
  0
LINE
  5
73
100
AcDbEntity
100
AcDbLine
  8
color#4f575cff
 62
256
370
-1
  6
BYLAYER
 10
5.1062839638630146
 20
7.2924741710570355
 30
0.0
 11
5.1180275008853586
 21
7.2895892021049251
 31
0.0
  0
LINE
  5
74
100
AcDbEntity
100
AcDbLine
  8
color#4f575cff
 62
256
370
-1
  6
BYLAYER
 10
5.1180275008853586
 20
7.2895892021049251
 30
0.0
 11
5.1297236073571053
 21
7.2863914914634265
 31
0.0
  0
LINE
  5
75
100
AcDbEntity
100
AcDbLine
  8
color#4f575cff
 62
256
370
-1
  6
BYLAYER
 10
5.1297236073571053
 20
7.2863914914634265
 30
0.0
 11
5.1413695112252134
 21
7.2828654802951815
 31
0.0
  0
LINE
  5
76
100
AcDbEntity
100
AcDbLine
  8
color#4f575cff
 62
256
370
-1
  6
BYLAYER
 10
5.1413695112252134
 20
7.2828654802951815
 30
0.0
 11
5.1529624404366388
 21
7.2789956097628368
 31
0.0
  0
LINE
  5
77
100
AcDbEntity
100
AcDbLine
  8
color#4f575cff
 62
256
370
-1
  6
BYLAYER
 10
5.1529624404366388
 20
7.2789956097628368
 30
0.0
 11
5.1794304188585425
 21
7.2703170081297639
 31
0.0
  0
LINE
  5
78
100
AcDbEntity
100
AcDbLine
  8
color#4f575cff
 62
256
370
-1
  6
BYLAYER
 10
5.1794304188585425
 20
7.2703170081297639
 30
0.0
 11
5.2053965067679329
 21
7.2604408953934305
 31
0.0
  0
LINE
  5
79
100
AcDbEntity
100
AcDbLine
  8
color#4f575cff
 62
256
370
-1
  6
BYLAYER
 10
5.2053965067679329
 20
7.2604408953934305
 30
0.0
 11
5.2308317071427393
 21
7.2494053584114084
 31
0.0
  0
LINE
  5
7A
100
AcDbEntity
100
AcDbLine
  8
color#4f575cff
 62
256
370
-1
  6
BYLAYER
 10
5.2308317071427393
 20
7.2494053584114084
 30
0.0
 11
5.2557070229608884
 21
7.2372484840412685
 31
0.0
  0
LINE
  5
7B
100
AcDbEntity
100
AcDbLine
  8
color#4f575cff
 62
256
370
-1
  6
BYLAYER
 10
5.2557070229608884
 20
7.2372484840412685
 30
0.0
 11
5.2799934572003089
 21
7.2240083591405799
 31
0.0
  0
LINE
  5
7C
100
AcDbEntity
100
AcDbLine
  8
color#4f575cff
 62
256
370
-1
  6
BYLAYER
 10
5.2799934572003089
 20
7.2240083591405799
 30
0.0
 11
5.3036620128389247
 21
7.2097230705669144
 31
0.0
  0
LINE
  5
7D
100
AcDbEntity
100
AcDbLine
  8
color#4f575cff
 62
256
370
-1
  6
BYLAYER
 10
5.3036620128389247
 20
7.2097230705669144
 30
0.0
 11
5.3266836928546644
 21
7.1944307051778438
 31
0.0
  0
LINE
  5
7E
100
AcDbEntity
100
AcDbLine
  8
color#4f575cff
 62
256
370
-1
  6
BYLAYER
 10
5.3266836928546644
 20
7.1944307051778438
 30
0.0
 11
5.3490295002254591
 21
7.1781693498309345
 31
0.0
  0
LINE
  5
7F
100
AcDbEntity
100
AcDbLine
  8
color#4f575cff
 62
256
370
-1
  6
BYLAYER
 10
5.3490295002254591
 20
7.1781693498309345
 30
0.0
 11
5.3706704379292312
 21
7.1609770913837592
 31
0.0
  0
LINE
  5
80
100
AcDbEntity
100
AcDbLine
  8
color#4f575cff
 62
256
370
-1
  6
BYLAYER
 10
5.3706704379292312
 20
7.1609770913837592
 30
0.0
 11
5.3915775089439064
 21
7.1428920166938887
 31
0.0
  0
LINE
  5
81
100
AcDbEntity
100
AcDbLine
  8
color#4f575cff
 62
256
370
-1
  6
BYLAYER
 10
5.3915775089439064
 20
7.1428920166938887
 30
0.0
 11
5.4117217162474178
 21
7.1239522126188941
 31
0.0
  0
LINE
  5
82
100
AcDbEntity
100
AcDbLine
  8
color#4f575cff
 62
256
370
-1
  6
BYLAYER
 10
5.4117217162474178
 20
7.1239522126188941
 30
0.0
 11
5.4310740628176912
 21
7.1041957660163417
 31
0.0
  0
LINE
  5
83
100
AcDbEntity
100
AcDbLine
  8
color#4f575cff
 62
256
370
-1
  6
BYLAYER
 10
5.4310740628176912
 20
7.1041957660163417
 30
0.0
 11
5.4496055516326498
 21
7.0836607637438078
 31
0.0
  0
LINE
  5
84
100
AcDbEntity
100
AcDbLine
  8
color#4f575cff
 62
256
370
-1
  6
BYLAYER
 10
5.4496055516326498
 20
7.0836607637438078
 30
0.0
 11
5.4672871856702248
 21
7.0623852926588579
 31
0.0
  0
LINE
  5
85
100
AcDbEntity
100
AcDbLine
  8
color#4f575cff
 62
256
370
-1
  6
BYLAYER
 10
5.4672871856702248
 20
7.0623852926588579
 30
0.0
 11
5.484089967908341
 21
7.0404074396190657
 31
0.0
  0
LINE
  5
86
100
AcDbEntity
100
AcDbLine
  8
color#4f575cff
 62
256
370
-1
  6
BYLAYER
 10
5.484089967908341
 20
7.0404074396190657
 30
0.0
 11
5.4999849013249271
 21
7.0177652914820019
 31
0.0
  0
LINE
  5
87
100
AcDbEntity
100
AcDbLine
  8
color#4f575cff
 62
256
370
-1
  6
BYLAYER
 10
5.4999849013249271
 20
7.0177652914820019
 30
0.0
 11
5.5149429888979107
 21
6.994496935105234
 31
0.0
  0
LINE
  5
88
100
AcDbEntity
100
AcDbLine
  8
color#4f575cff
 62
256
370
-1
  6
BYLAYER
 10
5.5149429888979107
 20
6.994496935105234
 30
0.0
 11
5.5289352336052184
 21
6.9706404573463345
 31
0.0
  0
LINE
  5
89
100
AcDbEntity
100
AcDbLine
  8
color#4f575cff
 62
256
370
-1
  6
BYLAYER
 10
5.5289352336052184
 20
6.9706404573463345
 30
0.0
 11
5.5419326384247771
 21
6.9462339450628727
 31
0.0
  0
LINE
  5
8A
100
AcDbEntity
100
AcDbLine
  8
color#4f575cff
 62
256
370
-1
  6
BYLAYER
 10
5.5419326384247771
 20
6.9462339450628727
 30
0.0
 11
5.5539062063345153
 21
6.9213154851124212
 31
0.0
  0
LINE
  5
8B
100
AcDbEntity
100
AcDbLine
  8
color#4f575cff
 62
256
370
-1
  6
BYLAYER
 10
5.5539062063345153
 20
6.9213154851124212
 30
0.0
 11
5.5648269403123578
 21
6.8959231643525474
 31
0.0
  0
LINE
  5
8C
100
AcDbEntity
100
AcDbLine
  8
color#4f575cff
 62
256
370
-1
  6
BYLAYER
 10
5.5648269403123578
 20
6.8959231643525474
 30
0.0
 11
5.574665843336235
 21
6.8700950696408247
 31
0.0
  0
LINE
  5
8D
100
AcDbEntity
100
AcDbLine
  8
color#4f575cff
 62
256
370
-1
  6
BYLAYER
 10
5.574665843336235
 20
6.8700950696408247
 30
0.0
 11
5.5833939183840711
 21
6.8438692878348224
 31
0.0
  0
LINE
  5
8E
100
AcDbEntity
100
AcDbLine
  8
color#4f575cff
 62
256
370
-1
  6
BYLAYER
 10
5.5833939183840711
 20
6.8438692878348224
 30
0.0
 11
5.5909821684337953
 21
6.8172839057921086
 31
0.0
  0
LINE
  5
8F
100
AcDbEntity
100
AcDbLine
  8
color#4f575cff
 62
256
370
-1
  6
BYLAYER
 10
5.5909821684337953
 20
6.8172839057921086
 30
0.0
 11
5.5974015964633344
 21
6.7903770103702579
 31
0.0
  0
LINE
  5
90
100
AcDbEntity
100
AcDbLine
  8
color#4f575cff
 62
256
370
-1
  6
BYLAYER
 10
5.5974015964633344
 20
6.7903770103702579
 30
0.0
 11
5.602623205450616
 21
6.7631866884268392
 31
0.0
  0
LINE
  5
91
100
AcDbEntity
100
AcDbLine
  8
color#4f575cff
 62
256
370
-1
  6
BYLAYER
 10
5.602623205450616
 20
6.7631866884268392
 30
0.0
 11
5.6066179983735651
 21
6.735751026819421
 31
0.0
  0
LINE
  5
92
100
AcDbEntity
100
AcDbLine
  8
color#4f575cff
 62
256
370
-1
  6
BYLAYER
 10
5.6066179983735651
 20
6.735751026819421
 30
0.0
 11
5.6093569782101103
 21
6.7081081124055766
 31
0.0
  0
LINE
  5
93
100
AcDbEntity
100
AcDbLine
  8
color#4f575cff
 62
256
370
-1
  6
BYLAYER
 10
5.6093569782101103
 20
6.7081081124055766
 30
0.0
 11
5.6108111479381817
 21
6.6802960320428753
 31
0.0
  0
LINE
  5
94
100
AcDbEntity
100
AcDbLine
  8
color#4f575cff
 62
256
370
-1
  6
BYLAYER
 10
5.6108111479381817
 20
6.6802960320428753
 30
0.0
 11
5.6107449416080684
 21
6.0044903331816908
 31
0.0
  0
LINE
  5
95
100
AcDbEntity
100
AcDbLine
  8
color#4f575cff
 62
256
370
-1
  6
BYLAYER
 10
5.6107449416080684
 20
6.0044903331816908
 30
0.0
 11
5.3271707295469151
 21
6.0062238640360386
 31
0.0
  0
LINE
  5
96
100
AcDbEntity
100
AcDbLine
  8
color#4f575cff
 62
256
370
-1
  6
BYLAYER
 10
5.3271707295469151
 20
6.0062238640360386
 30
0.0
 11
5.1654900288821457
 21
6.0079650600983134
 31
0.0
  0
LINE
  5
97
100
AcDbEntity
100
AcDbLine
  8
color#4f575cff
 62
256
370
-1
  6
BYLAYER
 10
5.1654900288821457
 20
6.0079650600983134
 30
0.0
 11
5.1650112695557073
 21
6.6535231466052709
 31
0.0
  0
LINE
  5
98
100
AcDbEntity
100
AcDbLine
  8
color#4f575cff
 62
256
370
-1
  6
BYLAYER
 10
5.1650112695557073
 20
6.6535231466052709
 30
0.0
 11
5.1647745280319119
 21
6.664871773349061
 31
0.0
  0
LINE
  5
99
100
AcDbEntity
100
AcDbLine
  8
color#4f575cff
 62
256
370
-1
  6
BYLAYER
 10
5.1647745280319119
 20
6.664871773349061
 30
0.0
 11
5.1638652053940932
 21
6.6761351893536531
 31
0.0
  0
LINE
  5
9A
100
AcDbEntity
100
AcDbLine
  8
color#4f575cff
 62
256
370
-1
  6
BYLAYER
 10
5.1638652053940932
 20
6.6761351893536531
 30
0.0
 11
5.1623033877892279
 21
6.6872897719417965
 31
0.0
  0
LINE
  5
9B
100
AcDbEntity
100
AcDbLine
  8
color#4f575cff
 62
256
370
-1
  6
BYLAYER
 10
5.1623033877892279
 20
6.6872897719417965
 30
0.0
 11
5.1601091613642884
 21
6.6983118984362342
 31
0.0
  0
LINE
  5
9C
100
AcDbEntity
100
AcDbLine
  8
color#4f575cff
 62
256
370
-1
  6
BYLAYER
 10
5.1601091613642884
 20
6.6983118984362342
 30
0.0
 11
5.1573026122662498
 21
6.7091779461597119
 31
0.0
  0
LINE
  5
9D
100
AcDbEntity
100
AcDbLine
  8
color#4f575cff
 62
256
370
-1
  6
BYLAYER
 10
5.1573026122662498
 20
6.7091779461597119
 30
0.0
 11
5.1539038266420842
 21
6.7198642924349743
 31
0.0
  0
LINE
  5
9E
100
AcDbEntity
100
AcDbLine
  8
color#4f575cff
 62
256
370
-1
  6
BYLAYER
 10
5.1539038266420842
 20
6.7198642924349743
 30
0.0
 11
5.1499328906387642
 21
6.7303473145847699
 31
0.0
  0
LINE
  5
9F
100
AcDbEntity
100
AcDbLine
  8
color#4f575cff
 62
256
370
-1
  6
BYLAYER
 10
5.1499328906387642
 20
6.7303473145847699
 30
0.0
 11
5.1454098904032666
 21
6.7406033899318407
 31
0.0
  0
LINE
  5
A0
100
AcDbEntity
100
AcDbLine
  8
color#4f575cff
 62
256
370
-1
  6
BYLAYER
 10
5.1454098904032666
 20
6.7406033899318407
 30
0.0
 11
5.1403549120825636
 21
6.7506088957989343
 31
0.0
  0
LINE
  5
A1
100
AcDbEntity
100
AcDbLine
  8
color#4f575cff
 62
256
370
-1
  6
BYLAYER
 10
5.1403549120825636
 20
6.7506088957989343
 30
0.0
 11
5.1347880418236258
 21
6.7603402095087963
 31
0.0
  0
LINE
  5
A2
100
AcDbEntity
100
AcDbLine
  8
color#4f575cff
 62
256
370
-1
  6
BYLAYER
 10
5.1347880418236258
 20
6.7603402095087963
 30
0.0
 11
5.1287293657734319
 21
6.7697737083841725
 31
0.0
  0
LINE
  5
A3
100
AcDbEntity
100
AcDbLine
  8
color#4f575cff
 62
256
370
-1
  6
BYLAYER
 10
5.1287293657734319
 20
6.7697737083841725
 30
0.0
 11
5.1221989700789532
 21
6.7788857697478058
 31
0.0
  0
LINE
  5
A4
100
AcDbEntity
100
AcDbLine
  8
color#4f575cff
 62
256
370
-1
  6
BYLAYER
 10
5.1221989700789532
 20
6.7788857697478058
 30
0.0
 11
5.1152169408871613
 21
6.7876527709224463
 31
0.0
  0
LINE
  5
A5
100
AcDbEntity
100
AcDbLine
  8
color#4f575cff
 62
256
370
-1
  6
BYLAYER
 10
5.1152169408871613
 20
6.7876527709224463
 30
0.0
 11
5.1078033643450329
 21
6.7960510892308337
 31
0.0
  0
LINE
  5
A6
100
AcDbEntity
100
AcDbLine
  8
color#4f575cff
 62
256
370
-1
  6
BYLAYER
 10
5.1078033643450329
 20
6.7960510892308337
 30
0.0
 11
5.0999783265995404
 21
6.8040571019957188
 31
0.0
  0
LINE
  5
A7
100
AcDbEntity
100
AcDbLine
  8
color#4f575cff
 62
256
370
-1
  6
BYLAYER
 10
5.0999783265995404
 20
6.8040571019957188
 30
0.0
 11
5.0917619137976571
 21
6.8116471865398447
 31
0.0
  0
LINE
  5
A8
100
AcDbEntity
100
AcDbLine
  8
color#4f575cff
 62
256
370
-1
  6
BYLAYER
 10
5.0917619137976571
 20
6.8116471865398447
 30
0.0
 11
5.0831742120863561
 21
6.8187977201859562
 31
0.0
  0
LINE
  5
A9
100
AcDbEntity
100
AcDbLine
  8
color#4f575cff
 62
256
370
-1
  6
BYLAYER
 10
5.0831742120863561
 20
6.8187977201859562
 30
0.0
 11
5.0742353076126125
 21
6.8254850802567999
 31
0.0
  0
LINE
  5
AA
100
AcDbEntity
100
AcDbLine
  8
color#4f575cff
 62
256
370
-1
  6
BYLAYER
 10
5.0742353076126125
 20
6.8254850802567999
 30
0.0
 11
5.0649652865233996
 21
6.8316856440751215
 31
0.0
  0
LINE
  5
AB
100
AcDbEntity
100
AcDbLine
  8
color#4f575cff
 62
256
370
-1
  6
BYLAYER
 10
5.0649652865233996
 20
6.8316856440751215
 30
0.0
 11
5.0553842349656914
 21
6.8373757889636666
 31
0.0
  0
LINE
  5
AC
100
AcDbEntity
100
AcDbLine
  8
color#4f575cff
 62
256
370
-1
  6
BYLAYER
 10
5.0553842349656914
 20
6.8373757889636666
 30
0.0
 11
5.0455122390864604
 21
6.8425318922451792
 31
0.0
  0
LINE
  5
AD
100
AcDbEntity
100
AcDbLine
  8
color#4f575cff
 62
256
370
-1
  6
BYLAYER
 10
5.0455122390864604
 20
6.8425318922451792
 30
0.0
 11
5.0353693850326806
 21
6.8471303312424077
 31
0.0
  0
LINE
  5
AE
100
AcDbEntity
100
AcDbLine
  8
color#4f575cff
 62
256
370
-1
  6
BYLAYER
 10
5.0353693850326806
 20
6.8471303312424077
 30
0.0
 11
5.0249757589513262
 21
6.851147483278095
 31
0.0
  0
LINE
  5
AF
100
AcDbEntity
100
AcDbLine
  8
color#4f575cff
 62
256
370
-1
  6
BYLAYER
 10
5.0249757589513262
 20
6.851147483278095
 30
0.0
 11
5.0143514469893695
 21
6.8545597256749877
 31
0.0
  0
LINE
  5
B0
100
AcDbEntity
100
AcDbLine
  8
color#4f575cff
 62
256
370
-1
  6
BYLAYER
 10
5.0143514469893695
 20
6.8545597256749877
 30
0.0
 11
5.0035165352937847
 21
6.8573434357558316
 31
0.0
  0
LINE
  5
B1
100
AcDbEntity
100
AcDbLine
  8
color#4f575cff
 62
256
370
-1
  6
BYLAYER
 10
5.0035165352937847
 20
6.8573434357558316
 30
0.0
 11
4.9924911100115459
 21
6.8594749908433714
 31
0.0
  0
LINE
  5
B2
100
AcDbEntity
100
AcDbLine
  8
color#4f575cff
 62
256
370
-1
  6
BYLAYER
 10
4.9924911100115459
 20
6.8594749908433714
 30
0.0
 11
4.9812952572896281
 21
6.860930768260352
 31
0.0
  0
LINE
  5
B3
100
AcDbEntity
100
AcDbLine
  8
color#4f575cff
 62
256
370
-1
  6
BYLAYER
 10
4.9812952572896281
 20
6.860930768260352
 30
0.0
 11
4.969949063275001
 21
6.8616871453295207
 31
0.0
  0
LINE
  5
B4
100
AcDbEntity
100
AcDbLine
  8
color#4f575cff
 62
256
370
-1
  6
BYLAYER
 10
4.969949063275001
 20
6.8616871453295207
 30
0.0
 11
4.9584726141146405
 21
6.8617204993736234
 31
0.0
  0
LINE
  5
B5
100
AcDbEntity
100
AcDbLine
  8
color#4f575cff
 62
256
370
-1
  6
BYLAYER
 10
4.9584726141146405
 20
6.8617204993736234
 30
0.0
 11
3.2077704405934884
 21
6.8622917388233597
 31
0.0
  0
LINE
  5
B6
100
AcDbEntity
100
AcDbLine
  8
color#4f575cff
 62
256
370
-1
  6
BYLAYER
 10
3.2077704405934884
 20
6.8622917388233597
 30
0.0
 11
3.1963491361179126
 21
6.862194783244095
 31
0.0
  0
LINE
  5
B7
100
AcDbEntity
100
AcDbLine
  8
color#4f575cff
 62
256
370
-1
  6
BYLAYER
 10
3.1963491361179126
 20
6.862194783244095
 30
0.0
 11
3.1850794180064432
 21
6.86137219394542
 31
0.0
  0
LINE
  5
B8
100
AcDbEntity
100
AcDbLine
  8
color#4f575cff
 62
256
370
-1
  6
BYLAYER
 10
3.1850794180064432
 20
6.86137219394542
 30
0.0
 11
3.1739795589899025
 21
6.8598483384615028
 31
0.0
  0
LINE
  5
B9
100
AcDbEntity
100
AcDbLine
  8
color#4f575cff
 62
256
370
-1
  6
BYLAYER
 10
3.1739795589899025
 20
6.8598483384615028
 30
0.0
 11
3.1630678317991041
 21
6.857647584326517
 31
0.0
  0
LINE
  5
BA
100
AcDbEntity
100
AcDbLine
  8
color#4f575cff
 62
256
370
-1
  6
BYLAYER
 10
3.1630678317991041
 20
6.857647584326517
 30
0.0
 11
3.1523625091648704
 21
6.8547942990746318
 31
0.0
  0
LINE
  5
BB
100
AcDbEntity
100
AcDbLine
  8
color#4f575cff
 62
256
370
-1
  6
BYLAYER
 10
3.1523625091648704
 20
6.8547942990746318
 30
0.0
 11
3.1418818638180168
 21
6.8513128502400154
 31
0.0
  0
LINE
  5
BC
100
AcDbEntity
100
AcDbLine
  8
color#4f575cff
 62
256
370
-1
  6
BYLAYER
 10
3.1418818638180168
 20
6.8513128502400154
 30
0.0
 11
3.1316441684893594
 21
6.847227605356843
 31
0.0
  0
LINE
  5
BD
100
AcDbEntity
100
AcDbLine
  8
color#4f575cff
 62
256
370
-1
  6
BYLAYER
 10
3.1316441684893594
 20
6.847227605356843
 30
0.0
 11
3.1216676959097232
 21
6.8425629319592804
 31
0.0
  0
LINE
  5
BE
100
AcDbEntity
100
AcDbLine
  8
color#4f575cff
 62
256
370
-1
  6
BYLAYER
 10
3.1216676959097232
 20
6.8425629319592804
 30
0.0
 11
3.1119707188099204
 21
6.8373431975815011
 31
0.0
  0
LINE
  5
BF
100
AcDbEntity
100
AcDbLine
  8
color#4f575cff
 62
256
370
-1
  6
BYLAYER
 10
3.1119707188099204
 20
6.8373431975815011
 30
0.0
 11
3.1025715099207694
 21
6.8315927697576759
 31
0.0
  0
LINE
  5
C0
100
AcDbEntity
100
AcDbLine
  8
color#4f575cff
 62
256
370
-1
  6
BYLAYER
 10
3.1025715099207694
 20
6.8315927697576759
 30
0.0
 11
3.0934883419730901
 21
6.825336016021974
 31
0.0
  0
LINE
  5
C1
100
AcDbEntity
100
AcDbLine
  8
color#4f575cff
 62
256
370
-1
  6
BYLAYER
 10
3.0934883419730901
 20
6.825336016021974
 30
0.0
 11
3.0847394876977017
 21
6.8185973039085672
 31
0.0
  0
LINE
  5
C2
100
AcDbEntity
100
AcDbLine
  8
color#4f575cff
 62
256
370
-1
  6
BYLAYER
 10
3.0847394876977017
 20
6.8185973039085672
 30
0.0
 11
3.0763432198254188
 21
6.8114010009516246
 31
0.0
  0
LINE
  5
C3
100
AcDbEntity
100
AcDbLine
  8
color#4f575cff
 62
256
370
-1
  6
BYLAYER
 10
3.0763432198254188
 20
6.8114010009516246
 30
0.0
 11
3.0683178110870619
 21
6.8037714746853188
 31
0.0
  0
LINE
  5
C4
100
AcDbEntity
100
AcDbLine
  8
color#4f575cff
 62
256
370
-1
  6
BYLAYER
 10
3.0683178110870619
 20
6.8037714746853188
 30
0.0
 11
3.0606815342134479
 21
6.7957330926438173
 31
0.0
  0
LINE
  5
C5
100
AcDbEntity
100
AcDbLine
  8
color#4f575cff
 62
256
370
-1
  6
BYLAYER
 10
3.0606815342134479
 20
6.7957330926438173
 30
0.0
 11
3.0534526619353968
 21
6.7873102223612927
 31
0.0
  0
LINE
  5
C6
100
AcDbEntity
100
AcDbLine
  8
color#4f575cff
 62
256
370
-1
  6
BYLAYER
 10
3.0534526619353968
 20
6.7873102223612927
 30
0.0
 11
3.0466494669837245
 21
6.7785272313719176
 31
0.0
  0
LINE
  5
C7
100
AcDbEntity
100
AcDbLine
  8
color#4f575cff
 62
256
370
-1
  6
BYLAYER
 10
3.0466494669837245
 20
6.7785272313719176
 30
0.0
 11
3.0402902220892503
 21
6.7694084872098585
 31
0.0
  0
LINE
  5
C8
100
AcDbEntity
100
AcDbLine
  8
color#4f575cff
 62
256
370
-1
  6
BYLAYER
 10
3.0402902220892503
 20
6.7694084872098585
 30
0.0
 11
3.0343931999827922
 21
6.7599783574092882
 31
0.0
  0
LINE
  5
C9
100
AcDbEntity
100
AcDbLine
  8
color#4f575cff
 62
256
370
-1
  6
BYLAYER
 10
3.0343931999827922
 20
6.7599783574092882
 30
0.0
 11
3.0289766733951686
 21
6.7502612095043766
 31
0.0
  0
LINE
  5
CA
100
AcDbEntity
100
AcDbLine
  8
color#4f575cff
 62
256
370
-1
  6
BYLAYER
 10
3.0289766733951686
 20
6.7502612095043766
 30
0.0
 11
3.0240589150571973
 21
6.7402814110292946
 31
0.0
  0
LINE
  5
CB
100
AcDbEntity
100
AcDbLine
  8
color#4f575cff
 62
256
370
-1
  6
BYLAYER
 10
3.0240589150571973
 20
6.7402814110292946
 30
0.0
 11
3.0196581976996959
 21
6.7300633295182131
 31
0.0
  0
LINE
  5
CC
100
AcDbEntity
100
AcDbLine
  8
color#4f575cff
 62
256
370
-1
  6
BYLAYER
 10
3.0196581976996959
 20
6.7300633295182131
 30
0.0
 11
3.0157927940534828
 21
6.7196313325053021
 31
0.0
  0
LINE
  5
CD
100
AcDbEntity
100
AcDbLine
  8
color#4f575cff
 62
256
370
-1
  6
BYLAYER
 10
3.0157927940534828
 20
6.7196313325053021
 30
0.0
 11
3.0124809768493765
 21
6.7090097875247325
 31
0.0
  0
LINE
  5
CE
100
AcDbEntity
100
AcDbLine
  8
color#4f575cff
 62
256
370
-1
  6
BYLAYER
 10
3.0124809768493765
 20
6.7090097875247325
 30
0.0
 11
3.0097410188181937
 21
6.6982230621106753
 31
0.0
  0
LINE
  5
CF
100
AcDbEntity
100
AcDbLine
  8
color#4f575cff
 62
256
370
-1
  6
BYLAYER
 10
3.0097410188181937
 20
6.6982230621106753
 30
0.0
 11
3.0075911926907546
 21
6.6872955237973004
 31
0.0
  0
LINE
  5
D0
100
AcDbEntity
100
AcDbLine
  8
color#4f575cff
 62
256
370
-1
  6
BYLAYER
 10
3.0075911926907546
 20
6.6872955237973004
 30
0.0
 11
3.0060497711978758
 21
6.6762515401187787
 31
0.0
  0
LINE
  5
D1
100
AcDbEntity
100
AcDbLine
  8
color#4f575cff
 62
256
370
-1
  6
BYLAYER
 10
3.0060497711978758
 20
6.6762515401187787
 30
0.0
 11
3.0051350270703763
 21
6.6651154786092812
 31
0.0
  0
LINE
  5
D2
100
AcDbEntity
100
AcDbLine
  8
color#4f575cff
 62
256
370
-1
  6
BYLAYER
 10
3.0051350270703763
 20
6.6651154786092812
 30
0.0
 11
3.0048652330390735
 21
6.6539117068029761
 31
0.0
  0
LINE
  5
D3
100
AcDbEntity
100
AcDbLine
  8
color#4f575cff
 62
256
370
-1
  6
BYLAYER
 10
3.0048652330390735
 20
6.6539117068029761
 30
0.0
 11
3.004032465693574
 21
6.0047523896456996
 31
0.0
  0
LINE
  5
D4
100
AcDbEntity
100
AcDbLine
  8
color#4f575cff
 62
256
370
-1
  6
BYLAYER
 10
3.004032465693574
 20
6.0047523896456996
 30
0.0
 11
2.850483823537366
 21
6.0050976968797043
 31
0.0
  0
LINE
  5
D5
100
AcDbEntity
100
AcDbLine
  8
color#4f575cff
 62
256
370
-1
  6
BYLAYER
 10
2.850483823537366
 20
6.0050976968797043
 30
0.0
 11
2.562934384682253
 21
6.0049758541130451
 31
0.0
  0
LINE
  5
D6
100
AcDbEntity
100
AcDbLine
  8
color#4f575cff
 62
256
370
-1
  6
BYLAYER
 10
2.562934384682253
 20
6.0049758541130451
 30
0.0
 11
2.5625741830798341
 21
6.6533628012222596
 31
0.0
  0
LINE
  5
D7
100
AcDbEntity
100
AcDbLine
  8
color#4f575cff
 62
256
370
-1
  6
BYLAYER
 10
2.5625741830798341
 20
6.6533628012222596
 30
0.0
 11
2.5626493460483051
 21
6.6708856655130324
 31
0.0
  0
LINE
  5
D8
100
AcDbEntity
100
AcDbLine
  8
color#4f575cff
 62
256
370
-1
  6
BYLAYER
 10
2.5626493460483051
 20
6.6708856655130324
 30
0.0
 11
2.5632219296281926
 21
6.6883912449320064
 31
0.0
  0
LINE
  5
D9
100
AcDbEntity
100
AcDbLine
  8
color#4f575cff
 62
256
370
-1
  6
BYLAYER
 10
2.5632219296281926
 20
6.6883912449320064
 30
0.0
 11
2.5642872455512724
 21
6.705867658964773
 31
0.0
  0
LINE
  5
DA
100
AcDbEntity
100
AcDbLine
  8
color#4f575cff
 62
256
370
-1
  6
BYLAYER
 10
2.5642872455512724
 20
6.705867658964773
 30
0.0
 11
2.5658406055493179
 21
6.7233030270969314
 31
0.0
  0
LINE
  5
DB
100
AcDbEntity
100
AcDbLine
  8
color#4f575cff
 62
256
370
-1
  6
BYLAYER
 10
2.5658406055493179
 20
6.7233030270969314
 30
0.0
 11
2.5678773213541048
 21
6.7406854688140756
 31
0.0
  0
LINE
  5
DC
100
AcDbEntity
100
AcDbLine
  8
color#4f575cff
 62
256
370
-1
  6
BYLAYER
 10
2.5678773213541048
 20
6.7406854688140756
 30
0.0
 11
2.5703927046974071
 21
6.7580031036017996
 31
0.0
  0
LINE
  5
DD
100
AcDbEntity
100
AcDbLine
  8
color#4f575cff
 62
256
370
-1
  6
BYLAYER
 10
2.5703927046974071
 20
6.7580031036017996
 30
0.0
 11
2.5733820673109968
 21
6.7752440509457008
 31
0.0
  0
LINE
  5
DE
100
AcDbEntity
100
AcDbLine
  8
color#4f575cff
 62
256
370
-1
  6
BYLAYER
 10
2.5733820673109968
 20
6.7752440509457008
 30
0.0
 11
2.5768407209266533
 21
6.7923964303313724
 31
0.0
  0
LINE
  5
DF
100
AcDbEntity
100
AcDbLine
  8
color#4f575cff
 62
256
370
-1
  6
BYLAYER
 10
2.5768407209266533
 20
6.7923964303313724
 30
0.0
 11
2.5807639772761477
 21
6.8094483612444137
 31
0.0
  0
LINE
  5
E0
100
AcDbEntity
100
AcDbLine
  8
color#4f575cff
 62
256
370
-1
  6
BYLAYER
 10
2.5807639772761477
 20
6.8094483612444137
 30
0.0
 11
2.5851471480912545
 21
6.8263879631704159
 31
0.0
  0
LINE
  5
E1
100
AcDbEntity
100
AcDbLine
  8
color#4f575cff
 62
256
370
-1
  6
BYLAYER
 10
2.5851471480912545
 20
6.8263879631704159
 30
0.0
 11
2.5899855451037483
 21
6.8432033555949756
 31
0.0
  0
LINE
  5
E2
100
AcDbEntity
100
AcDbLine
  8
color#4f575cff
 62
256
370
-1
  6
BYLAYER
 10
2.5899855451037483
 20
6.8432033555949756
 30
0.0
 11
2.5952744800454046
 21
6.8598826580036896
 31
0.0
  0
LINE
  5
E3
100
AcDbEntity
100
AcDbLine
  8
color#4f575cff
 62
256
370
-1
  6
BYLAYER
 10
2.5952744800454046
 20
6.8598826580036896
 30
0.0
 11
2.6010092646479972
 21
6.8764139898821508
 31
0.0
  0
LINE
  5
E4
100
AcDbEntity
100
AcDbLine
  8
color#4f575cff
 62
256
370
-1
  6
BYLAYER
 10
2.6010092646479972
 20
6.8764139898821508
 30
0.0
 11
2.6071852106433018
 21
6.8927854707159577
 31
0.0
  0
LINE
  5
E5
100
AcDbEntity
100
AcDbLine
  8
color#4f575cff
 62
256
370
-1
  6
BYLAYER
 10
2.6071852106433018
 20
6.8927854707159577
 30
0.0
 11
2.6137976297630909
 21
6.9089852199907025
 31
0.0
  0
LINE
  5
E6
100
AcDbEntity
100
AcDbLine
  8
color#4f575cff
 62
256
370
-1
  6
BYLAYER
 10
2.6137976297630909
 20
6.9089852199907025
 30
0.0
 11
2.6208418337391399
 21
6.9250013571919826
 31
0.0
  0
LINE
  5
E7
100
AcDbEntity
100
AcDbLine
  8
color#4f575cff
 62
256
370
-1
  6
BYLAYER
 10
2.6208418337391399
 20
6.9250013571919826
 30
0.0
 11
2.6283131343032236
 21
6.9408220018053939
 31
0.0
  0
LINE
  5
E8
100
AcDbEntity
100
AcDbLine
  8
color#4f575cff
 62
256
370
-1
  6
BYLAYER
 10
2.6283131343032236
 20
6.9408220018053939
 30
0.0
 11
2.6362068431871157
 21
6.9564352733165293
 31
0.0
  0
LINE
  5
E9
100
AcDbEntity
100
AcDbLine
  8
color#4f575cff
 62
256
370
-1
  6
BYLAYER
 10
2.6362068431871157
 20
6.9564352733165293
 30
0.0
 11
2.6445182721225913
 21
6.9718292912109856
 31
0.0
  0
LINE
  5
EA
100
AcDbEntity
100
AcDbLine
  8
color#4f575cff
 62
256
370
-1
  6
BYLAYER
 10
2.6445182721225913
 20
6.9718292912109856
 30
0.0
 11
2.653242732841425
 21
6.9869921749743602
 31
0.0
  0
LINE
  5
EB
100
AcDbEntity
100
AcDbLine
  8
color#4f575cff
 62
256
370
-1
  6
BYLAYER
 10
2.653242732841425
 20
6.9869921749743602
 30
0.0
 11
2.6623755370753903
 21
7.0019120440922444
 31
0.0
  0
LINE
  5
EC
100
AcDbEntity
100
AcDbLine
  8
color#4f575cff
 62
256
370
-1
  6
BYLAYER
 10
2.6623755370753903
 20
7.0019120440922444
 30
0.0
 11
2.671911996556263
 21
7.0165770180502376
 31
0.0
  0
LINE
  5
ED
100
AcDbEntity
100
AcDbLine
  8
color#4f575cff
 62
256
370
-1
  6
BYLAYER
 10
2.671911996556263
 20
7.0165770180502376
 30
0.0
 11
2.6818474230158169
 21
7.0309752163339319
 31
0.0
  0
LINE
  5
EE
100
AcDbEntity
100
AcDbLine
  8
color#4f575cff
 62
256
370
-1
  6
BYLAYER
 10
2.6818474230158169
 20
7.0309752163339319
 30
0.0
 11
2.6921771281858264
 21
7.045094758428923
 31
0.0
  0
LINE
  5
EF
100
AcDbEntity
100
AcDbLine
  8
color#4f575cff
 62
256
370
-1
  6
BYLAYER
 10
2.6921771281858264
 20
7.045094758428923
 30
0.0
 11
2.7028964237980655
 21
7.0589237638208084
 31
0.0
  0
LINE
  5
F0
100
AcDbEntity
100
AcDbLine
  8
color#4f575cff
 62
256
370
-1
  6
BYLAYER
 10
2.7028964237980655
 20
7.0589237638208084
 30
0.0
 11
2.7140006215843102
 21
7.072450351995184
 31
0.0
  0
LINE
  5
F1
100
AcDbEntity
100
AcDbLine
  8
color#4f575cff
 62
256
370
-1
  6
BYLAYER
 10
2.7140006215843102
 20
7.072450351995184
 30
0.0
 11
2.7254850332763327
 21
7.085662642437641
 31
0.0
  0
LINE
  5
F2
100
AcDbEntity
100
AcDbLine
  8
color#4f575cff
 62
256
370
-1
  6
BYLAYER
 10
2.7254850332763327
 20
7.085662642437641
 30
0.0
 11
2.7373449706059096
 21
7.0985487546337795
 31
0.0
  0
LINE
  5
F3
100
AcDbEntity
100
AcDbLine
  8
color#4f575cff
 62
256
370
-1
  6
BYLAYER
 10
2.7373449706059096
 20
7.0985487546337795
 30
0.0
 11
2.7495757453048144
 21
7.111096808069191
 31
0.0
  0
LINE
  5
F4
100
AcDbEntity
100
AcDbLine
  8
color#4f575cff
 62
256
370
-1
  6
BYLAYER
 10
1.6939167883869795
 20
3.8269163000127002
 30
0.0
 11
3.0038407809487691
 21
3.8269096308875441
 31
0.0
  0
LINE
  5
F5
100
AcDbEntity
100
AcDbLine
  8
color#4f575cff
 62
256
370
-1
  6
BYLAYER
 10
3.0038407809487691
 20
3.8269096308875441
 30
0.0
 11
3.0038030281865606
 21
2.9582132631877185
 31
0.0
  0
LINE
  5
F6
100
AcDbEntity
100
AcDbLine
  8
color#4f575cff
 62
256
370
-1
  6
BYLAYER
 10
3.0038030281865606
 20
2.9582132631877185
 30
0.0
 11
2.6722825688840293
 21
2.9587654113123594
 31
0.0
  0
LINE
  5
F7
100
AcDbEntity
100
AcDbLine
  8
color#4f575cff
 62
256
370
-1
  6
BYLAYER
 10
2.6722825688840293
 20
2.9587654113123594
 30
0.0
 11
2.2302951080425011
 21
2.9587360398771909
 31
0.0
  0
LINE
  5
F8
100
AcDbEntity
100
AcDbLine
  8
color#4f575cff
 62
256
370
-1
  6
BYLAYER
 10
2.2302951080425011
 20
2.9587360398771909
 30
0.0
 11
1.6940268733595358
 21
2.958428742985765
 31
0.0
  0
LINE
  5
F9
100
AcDbEntity
100
AcDbLine
  8
color#4f575cff
 62
256
370
-1
  6
BYLAYER
 10
1.6940268733595358
 20
2.958428742985765
 30
0.0
 11
1.6939167883869795
 21
3.8269163000127002
 31
0.0
  0
LINE
  5
FA
100
AcDbEntity
100
AcDbLine
  8
color#4f575cff
 62
256
370
-1
  6
BYLAYER
 10
5.1661044670215617
 20
3.8238769539957276
 30
0.0
 11
6.4761190194906959
 21
3.8238564633711825
 31
0.0
  0
LINE
  5
FB
100
AcDbEntity
100
AcDbLine
  8
color#4f575cff
 62
256
370
-1
  6
BYLAYER
 10
6.4761190194906959
 20
3.8238564633711825
 30
0.0
 11
6.4760114883378579
 21
2.958316280855978
 31
0.0
  0
LINE
  5
FC
100
AcDbEntity
100
AcDbLine
  8
color#4f575cff
 62
256
370
-1
  6
BYLAYER
 10
6.4760114883378579
 20
2.958316280855978
 30
0.0
 11
5.9441013668962288
 21
2.9579354023697664
 31
0.0
  0
LINE
  5
FD
100
AcDbEntity
100
AcDbLine
  8
color#4f575cff
 62
256
370
-1
  6
BYLAYER
 10
5.9441013668962288
 20
2.9579354023697664
 30
0.0
 11
5.4988943748450243
 21
2.9579092775332536
 31
0.0
  0
LINE
  5
FE
100
AcDbEntity
100
AcDbLine
  8
color#4f575cff
 62
256
370
-1
  6
BYLAYER
 10
5.4988943748450243
 20
2.9579092775332536
 30
0.0
 11
5.1662784468138998
 21
2.9584686738837314
 31
0.0
  0
LINE
  5
FF
100
AcDbEntity
100
AcDbLine
  8
color#4f575cff
 62
256
370
-1
  6
BYLAYER
 10
5.1662784468138998
 20
2.9584686738837314
 30
0.0
 11
5.1661044670215617
 21
3.8238769539957276
 31
0.0
  0
LINE
  5
100
100
AcDbEntity
100
AcDbLine
  8
color#cd0000ff
 62
256
370
-1
  6
BYLAYER
 10
4.0806020852637062
 20
6.0063460743186292
 30
0.0
 11
5.1654900288821457
 21
6.0079650600983134
 31
0.0
  0
LINE
  5
101
100
AcDbEntity
100
AcDbLine
  8
color#cd0000ff
 62
256
370
-1
  6
BYLAYER
 10
5.1654900288821457
 20
6.0079650600983134
 30
0.0
 11
5.3271707295469151
 21
6.0062238640360386
 31
0.0
  0
LINE
  5
102
100
AcDbEntity
100
AcDbLine
  8
color#cd0000ff
 62
256
370
-1
  6
BYLAYER
 10
5.3271707295469151
 20
6.0062238640360386
 30
0.0
 11
5.5410706297323413
 21
5.1390575128236788
 31
0.0
  0
LINE
  5
103
100
AcDbEntity
100
AcDbLine
  8
color#cd0000ff
 62
256
370
-1
  6
BYLAYER
 10
5.5410706297323413
 20
5.1390575128236788
 30
0.0
 11
4.0840283360280827
 21
5.1402157887116653
 31
0.0
  0
LINE
  5
104
100
AcDbEntity
100
AcDbLine
  8
color#cd0000ff
 62
256
370
-1
  6
BYLAYER
 10
4.0840283360280827
 20
5.1402157887116653
 30
0.0
 11
4.0806020852637062
 21
6.0063460743186292
 31
0.0
  0
LINE
  5
105
100
AcDbEntity
100
AcDbLine
  8
color#cd0000ff
 62
256
370
-1
  6
BYLAYER
 10
5.7740986656936366
 20
6.0077488248085595
 30
0.0
 11
6.9132062120435256
 21
6.0080708736878536
 31
0.0
  0
LINE
  5
106
100
AcDbEntity
100
AcDbLine
  8
color#cd0000ff
 62
256
370
-1
  6
BYLAYER
 10
6.9132062120435256
 20
6.0080708736878536
 30
0.0
 11
7.1269781286149447
 21
5.1390458461569839
 31
0.0
  0
LINE
  5
107
100
AcDbEntity
100
AcDbLine
  8
color#cd0000ff
 62
256
370
-1
  6
BYLAYER
 10
7.1269781286149447
 20
5.1390458461569839
 30
0.0
 11
5.9916668565014994
 21
5.1397824448876017
 31
0.0
  0
LINE
  5
108
100
AcDbEntity
100
AcDbLine
  8
color#cd0000ff
 62
256
370
-1
  6
BYLAYER
 10
5.9916668565014994
 20
5.1397824448876017
 30
0.0
 11
5.7740986656936366
 21
6.0077488248085595
 31
0.0
  0
LINE
  5
109
100
AcDbEntity
100
AcDbLine
  8
color#cd0000ff
 62
256
370
-1
  6
BYLAYER
 10
4.0827320625849026
 20
3.8259800383729705
 30
0.0
 11
5.1661044670215617
 21
3.8238769539957276
 31
0.0
  0
LINE
  5
10A
100
AcDbEntity
100
AcDbLine
  8
color#cd0000ff
 62
256
370
-1
  6
BYLAYER
 10
5.1661044670215617
 20
3.8238769539957276
 30
0.0
 11
5.1662784468138998
 21
2.9584686738837314
 31
0.0
  0
LINE
  5
10B
100
AcDbEntity
100
AcDbLine
  8
color#cd0000ff
 62
256
370
-1
  6
BYLAYER
 10
5.1662784468138998
 20
2.9584686738837314
 30
0.0
 11
5.4988943748450243
 21
2.9579092775332536
 31
0.0
  0
LINE
  5
10C
100
AcDbEntity
100
AcDbLine
  8
color#cd0000ff
 62
256
370
-1
  6
BYLAYER
 10
5.4988943748450243
 20
2.9579092775332536
 30
0.0
 11
5.3883780540472666
 21
0.666571125812742
 31
0.0
  0
LINE
  5
10D
100
AcDbEntity
100
AcDbLine
  8
color#cd0000ff
 62
256
370
-1
  6
BYLAYER
 10
5.3883780540472666
 20
0.666571125812742
 30
0.0
 11
5.3781603881749618
 21
0.4602921206946067
 31
0.0
  0
LINE
  5
10E
100
AcDbEntity
100
AcDbLine
  8
color#cd0000ff
 62
256
370
-1
  6
BYLAYER
 10
5.3781603881749618
 20
0.4602921206946067
 30
0.0
 11
5.376168778208851
 21
0.37342567072767
 31
0.0
  0
LINE
  5
10F
100
AcDbEntity
100
AcDbLine
  8
color#cd0000ff
 62
256
370
-1
  6
BYLAYER
 10
5.376168778208851
 20
0.37342567072767
 30
0.0
 11
5.376960753244961
 21
0.351677037536651
 31
0.0
  0
LINE
  5
110
100
AcDbEntity
100
AcDbLine
  8
color#cd0000ff
 62
256
370
-1
  6
BYLAYER
 10
5.376960753244961
 20
0.351677037536651
 30
0.0
 11
4.0810646930024896
 21
0.3532559160767208
 31
0.0
  0
LINE
  5
111
100
AcDbEntity
100
AcDbLine
  8
color#cd0000ff
 62
256
370
-1
  6
BYLAYER
 10
4.0810646930024896
 20
0.3532559160767208
 30
0.0
 11
4.0827320625849026
 21
3.8259800383729705
 31
0.0
  0
LINE
  5
112
100
AcDbEntity
100
AcDbLine
  8
color#cd0000ff
 62
256
370
-1
  6
BYLAYER
 10
6.4761190194906959
 20
3.8238564633711825
 30
0.0
 11
7.4531410496606201
 21
3.8237183279240514
 31
0.0
  0
LINE
  5
113
100
AcDbEntity
100
AcDbLine
  8
color#cd0000ff
 62
256
370
-1
  6
BYLAYER
 10
7.4531410496606201
 20
3.8237183279240514
 30
0.0
 11
7.1096237823682111
 21
0.3511707995696993
 31
0.0
  0
LINE
  5
114
100
AcDbEntity
100
AcDbLine
  8
color#cd0000ff
 62
256
370
-1
  6
BYLAYER
 10
7.1096237823682111
 20
0.3511707995696993
 30
0.0
 11
5.8164928618682294
 21
0.3513956503293514
 31
0.0
  0
LINE
  5
115
100
AcDbEntity
100
AcDbLine
  8
color#cd0000ff
 62
256
370
-1
  6
BYLAYER
 10
5.8164928618682294
 20
0.3513956503293514
 30
0.0
 11
5.9248135619287661
 21
2.598396345306162
 31
0.0
  0
LINE
  5
116
100
AcDbEntity
100
AcDbLine
  8
color#cd0000ff
 62
256
370
-1
  6
BYLAYER
 10
5.9248135619287661
 20
2.598396345306162
 30
0.0
 11
5.9427919829215341
 21
2.9455736685939993
 31
0.0
  0
LINE
  5
117
100
AcDbEntity
100
AcDbLine
  8
color#cd0000ff
 62
256
370
-1
  6
BYLAYER
 10
5.9427919829215341
 20
2.9455736685939993
 30
0.0
 11
5.9441013668962288
 21
2.9579354023697664
 31
0.0
  0
LINE
  5
118
100
AcDbEntity
100
AcDbLine
  8
color#cd0000ff
 62
256
370
-1
  6
BYLAYER
 10
5.9441013668962288
 20
2.9579354023697664
 30
0.0
 11
6.4760114883378579
 21
2.958316280855978
 31
0.0
  0
LINE
  5
119
100
AcDbEntity
100
AcDbLine
  8
color#cd0000ff
 62
256
370
-1
  6
BYLAYER
 10
6.4760114883378579
 20
2.958316280855978
 30
0.0
 11
6.4761190194906959
 21
3.8238564633711825
 31
0.0
  0
LINE
  5
11A
100
AcDbEntity
100
AcDbLine
  8
color#f03800ff
 62
256
370
-1
  6
BYLAYER
 10
0.9197662663408954
 20
6.0046433806907178
 30
0.0
 11
2.397686060869205
 21
6.0053863875203923
 31
0.0
  0
LINE
  5
11B
100
AcDbEntity
100
AcDbLine
  8
color#f03800ff
 62
256
370
-1
  6
BYLAYER
 10
2.397686060869205
 20
6.0053863875203923
 30
0.0
 11
2.1789258660585977
 21
5.1388634736320338
 31
0.0
  0
LINE
  5
11C
100
AcDbEntity
100
AcDbLine
  8
color#f03800ff
 62
256
370
-1
  6
BYLAYER
 10
2.1789258660585977
 20
5.1388634736320338
 30
0.0
 11
0.7044964673719398
 21
5.1389528435856908
 31
0.0
  0
LINE
  5
11D
100
AcDbEntity
100
AcDbLine
  8
color#f03800ff
 62
256
370
-1
  6
BYLAYER
 10
0.7044964673719398
 20
5.1389528435856908
 30
0.0
 11
0.9197662663408954
 21
6.0046433806907178
 31
0.0
  0
LINE
  5
11E
100
AcDbEntity
100
AcDbLine
  8
color#f03800ff
 62
256
370
-1
  6
BYLAYER
 10
2.850483823537366
 20
6.0050976968797043
 30
0.0
 11
3.004032465693574
 21
6.0047523896456996
 31
0.0
  0
LINE
  5
11F
100
AcDbEntity
100
AcDbLine
  8
color#f03800ff
 62
256
370
-1
  6
BYLAYER
 10
3.004032465693574
 20
6.0047523896456996
 30
0.0
 11
4.0806020852637062
 21
6.0063460743186292
 31
0.0
  0
LINE
  5
120
100
AcDbEntity
100
AcDbLine
  8
color#f03800ff
 62
256
370
-1
  6
BYLAYER
 10
4.0806020852637062
 20
6.0063460743186292
 30
0.0
 11
4.0840283360280827
 21
5.1402157887116653
 31
0.0
  0
LINE
  5
121
100
AcDbEntity
100
AcDbLine
  8
color#f03800ff
 62
256
370
-1
  6
BYLAYER
 10
4.0840283360280827
 20
5.1402157887116653
 30
0.0
 11
5.5410706297323413
 21
5.1390575128236788
 31
0.0
  0
LINE
  5
122
100
AcDbEntity
100
AcDbLine
  8
color#f03800ff
 62
256
370
-1
  6
BYLAYER
 10
5.5410706297323413
 20
5.1390575128236788
 30
0.0
 11
5.9916668565014994
 21
5.1397824448876017
 31
0.0
  0
LINE
  5
123
100
AcDbEntity
100
AcDbLine
  8
color#f03800ff
 62
256
370
-1
  6
BYLAYER
 10
5.9916668565014994
 20
5.1397824448876017
 30
0.0
 11
7.1269781286149447
 21
5.1390458461569839
 31
0.0
  0
LINE
  5
124
100
AcDbEntity
100
AcDbLine
  8
color#f03800ff
 62
256
370
-1
  6
BYLAYER
 10
7.1269781286149447
 20
5.1390458461569839
 30
0.0
 11
7.777721898719979
 21
5.1390377593903223
 31
0.0
  0
LINE
  5
125
100
AcDbEntity
100
AcDbLine
  8
color#f03800ff
 62
256
370
-1
  6
BYLAYER
 10
7.777721898719979
 20
5.1390377593903223
 30
0.0
 11
7.7779275225857765
 21
3.8245456127176078
 31
0.0
  0
LINE
  5
126
100
AcDbEntity
100
AcDbLine
  8
color#f03800ff
 62
256
370
-1
  6
BYLAYER
 10
7.7779275225857765
 20
3.8245456127176078
 30
0.0
 11
5.9437678967933385
 21
3.8268438669651474
 31
0.0
  0
LINE
  5
127
100
AcDbEntity
100
AcDbLine
  8
color#f03800ff
 62
256
370
-1
  6
BYLAYER
 10
5.9437678967933385
 20
3.8268438669651474
 30
0.0
 11
4.0820037479510454
 21
3.8297094606380337
 31
0.0
  0
LINE
  5
128
100
AcDbEntity
100
AcDbLine
  8
color#f03800ff
 62
256
370
-1
  6
BYLAYER
 10
4.0820037479510454
 20
3.8297094606380337
 30
0.0
 11
4.081639313800606
 21
5.1386432422366921
 31
0.0
  0
LINE
  5
129
100
AcDbEntity
100
AcDbLine
  8
color#f03800ff
 62
256
370
-1
  6
BYLAYER
 10
4.081639313800606
 20
5.1386432422366921
 30
0.0
 11
2.6330839902554133
 21
5.1399108225877264
 31
0.0
  0
LINE
  5
12A
100
AcDbEntity
100
AcDbLine
  8
color#f03800ff
 62
256
370
-1
  6
BYLAYER
 10
2.6330839902554133
 20
5.1399108225877264
 30
0.0
 11
2.850483823537366
 21
6.0050976968797043
 31
0.0
  0
LINE
  5
12B
100
AcDbEntity
100
AcDbLine
  8
color#f03800ff
 62
256
370
-1
  6
BYLAYER
 10
0.7203870776815272
 20
3.8271245897437143
 30
0.0
 11
1.6939167883869795
 21
3.8269163000127002
 31
0.0
  0
LINE
  5
12C
100
AcDbEntity
100
AcDbLine
  8
color#f03800ff
 62
256
370
-1
  6
BYLAYER
 10
1.6939167883869795
 20
3.8269163000127002
 30
0.0
 11
1.6940268733595358
 21
2.958428742985765
 31
0.0
  0
LINE
  5
12D
100
AcDbEntity
100
AcDbLine
  8
color#f03800ff
 62
256
370
-1
  6
BYLAYER
 10
1.6940268733595358
 20
2.958428742985765
 30
0.0
 11
2.2302951080425011
 21
2.9587360398771909
 31
0.0
  0
LINE
  5
12E
100
AcDbEntity
100
AcDbLine
  8
color#f03800ff
 62
256
370
-1
  6
BYLAYER
 10
2.2302951080425011
 20
2.9587360398771909
 30
0.0
 11
2.3542925980276692
 21
0.3539295944683671
 31
0.0
  0
LINE
  5
12F
100
AcDbEntity
100
AcDbLine
  8
color#f03800ff
 62
256
370
-1
  6
BYLAYER
 10
2.3542925980276692
 20
0.3539295944683671
 30
0.0
 11
1.0660524675419449
 21
0.3548244575174679
 31
0.0
  0
LINE
  5
130
100
AcDbEntity
100
AcDbLine
  8
color#f03800ff
 62
256
370
-1
  6
BYLAYER
 10
1.0660524675419449
 20
0.3548244575174679
 30
0.0
 11
0.7203870776815272
 21
3.8271245897437143
 31
0.0
  0
LINE
  5
131
100
AcDbEntity
100
AcDbLine
  8
color#f03800ff
 62
256
370
-1
  6
BYLAYER
 10
3.0038407809487691
 20
3.8269096308875441
 30
0.0
 11
4.0827320625849026
 21
3.8259800383729705
 31
0.0
  0
LINE
  5
132
100
AcDbEntity
100
AcDbLine
  8
color#f03800ff
 62
256
370
-1
  6
BYLAYER
 10
4.0827320625849026
 20
3.8259800383729705
 30
0.0
 11
4.0810646930024896
 21
0.3532559160767208
 31
0.0
  0
LINE
  5
133
100
AcDbEntity
100
AcDbLine
  8
color#f03800ff
 62
256
370
-1
  6
BYLAYER
 10
4.0810646930024896
 20
0.3532559160767208
 30
0.0
 11
2.7958990277885283
 21
0.3542336290795083
 31
0.0
  0
LINE
  5
134
100
AcDbEntity
100
AcDbLine
  8
color#f03800ff
 62
256
370
-1
  6
BYLAYER
 10
2.7958990277885283
 20
0.3542336290795083
 30
0.0
 11
2.6722825688840293
 21
2.9587654113123594
 31
0.0
  0
LINE
  5
135
100
AcDbEntity
100
AcDbLine
  8
color#f03800ff
 62
256
370
-1
  6
BYLAYER
 10
2.6722825688840293
 20
2.9587654113123594
 30
0.0
 11
3.0038030281865606
 21
2.9582132631877185
 31
0.0
  0
LINE
  5
136
100
AcDbEntity
100
AcDbLine
  8
color#f03800ff
 62
256
370
-1
  6
BYLAYER
 10
3.0038030281865606
 20
2.9582132631877185
 30
0.0
 11
3.0038407809487691
 21
3.8269096308875441
 31
0.0
  0
LINE
  5
137
100
AcDbEntity
100
AcDbLine
  8
color#cbd7f1ff
 62
256
370
-1
  6
BYLAYER
 10
2.397686060869205
 20
6.0053863875203923
 30
0.0
 11
2.562934384682253
 21
6.0049758541130451
 31
0.0
  0
LINE
  5
138
100
AcDbEntity
100
AcDbLine
  8
color#cbd7f1ff
 62
256
370
-1
  6
BYLAYER
 10
2.562934384682253
 20
6.0049758541130451
 30
0.0
 11
2.850483823537366
 21
6.0050976968797043
 31
0.0
  0
LINE
  5
139
100
AcDbEntity
100
AcDbLine
  8
color#cbd7f1ff
 62
256
370
-1
  6
BYLAYER
 10
2.850483823537366
 20
6.0050976968797043
 30
0.0
 11
2.6330839902554133
 21
5.1399108225877264
 31
0.0
  0
LINE
  5
13A
100
AcDbEntity
100
AcDbLine
  8
color#cbd7f1ff
 62
256
370
-1
  6
BYLAYER
 10
2.6330839902554133
 20
5.1399108225877264
 30
0.0
 11
2.1789258660585977
 21
5.1388634736320338
 31
0.0
  0
LINE
  5
13B
100
AcDbEntity
100
AcDbLine
  8
color#cbd7f1ff
 62
256
370
-1
  6
BYLAYER
 10
2.1789258660585977
 20
5.1388634736320338
 30
0.0
 11
2.397686060869205
 21
6.0053863875203923
 31
0.0
  0
LINE
  5
13C
100
AcDbEntity
100
AcDbLine
  8
color#cbd7f1ff
 62
256
370
-1
  6
BYLAYER
 10
2.2302951080425011
 20
2.9587360398771909
 30
0.0
 11
2.6722825688840293
 21
2.9587654113123594
 31
0.0
  0
LINE
  5
13D
100
AcDbEntity
100
AcDbLine
  8
color#cbd7f1ff
 62
256
370
-1
  6
BYLAYER
 10
2.6722825688840293
 20
2.9587654113123594
 30
0.0
 11
2.7958990277885283
 21
0.3542336290795083
 31
0.0
  0
LINE
  5
13E
100
AcDbEntity
100
AcDbLine
  8
color#cbd7f1ff
 62
256
370
-1
  6
BYLAYER
 10
2.7958990277885283
 20
0.3542336290795083
 30
0.0
 11
2.3542925980276692
 21
0.3539295944683671
 31
0.0
  0
LINE
  5
13F
100
AcDbEntity
100
AcDbLine
  8
color#cbd7f1ff
 62
256
370
-1
  6
BYLAYER
 10
2.3542925980276692
 20
0.3539295944683671
 30
0.0
 11
2.2302951080425011
 21
2.9587360398771909
 31
0.0
  0
LINE
  5
140
100
AcDbEntity
100
AcDbLine
  8
color#b1bbe8ff
 62
256
370
-1
  6
BYLAYER
 10
5.3271707295469151
 20
6.0062238640360386
 30
0.0
 11
5.6107449416080684
 21
6.0044903331816908
 31
0.0
  0
LINE
  5
141
100
AcDbEntity
100
AcDbLine
  8
color#b1bbe8ff
 62
256
370
-1
  6
BYLAYER
 10
5.6107449416080684
 20
6.0044903331816908
 30
0.0
 11
5.7740986656936366
 21
6.0077488248085595
 31
0.0
  0
LINE
  5
142
100
AcDbEntity
100
AcDbLine
  8
color#b1bbe8ff
 62
256
370
-1
  6
BYLAYER
 10
5.7740986656936366
 20
6.0077488248085595
 30
0.0
 11
5.9916668565014994
 21
5.1397824448876017
 31
0.0
  0
LINE
  5
143
100
AcDbEntity
100
AcDbLine
  8
color#b1bbe8ff
 62
256
370
-1
  6
BYLAYER
 10
5.9916668565014994
 20
5.1397824448876017
 30
0.0
 11
5.5410706297323413
 21
5.1390575128236788
 31
0.0
  0
LINE
  5
144
100
AcDbEntity
100
AcDbLine
  8
color#b1bbe8ff
 62
256
370
-1
  6
BYLAYER
 10
5.5410706297323413
 20
5.1390575128236788
 30
0.0
 11
5.3271707295469151
 21
6.0062238640360386
 31
0.0
  0
LINE
  5
145
100
AcDbEntity
100
AcDbLine
  8
color#b1bbe8ff
 62
256
370
-1
  6
BYLAYER
 10
5.4988943748450243
 20
2.9579092775332536
 30
0.0
 11
5.9441013668962288
 21
2.9579354023697664
 31
0.0
  0
LINE
  5
146
100
AcDbEntity
100
AcDbLine
  8
color#b1bbe8ff
 62
256
370
-1
  6
BYLAYER
 10
5.9441013668962288
 20
2.9579354023697664
 30
0.0
 11
5.9427919829215341
 21
2.9455736685939993
 31
0.0
  0
LINE
  5
147
100
AcDbEntity
100
AcDbLine
  8
color#b1bbe8ff
 62
256
370
-1
  6
BYLAYER
 10
5.9427919829215341
 20
2.9455736685939993
 30
0.0
 11
5.9248135619287661
 21
2.598396345306162
 31
0.0
  0
LINE
  5
148
100
AcDbEntity
100
AcDbLine
  8
color#b1bbe8ff
 62
256
370
-1
  6
BYLAYER
 10
5.9248135619287661
 20
2.598396345306162
 30
0.0
 11
5.8164928618682294
 21
0.3513956503293514
 31
0.0
  0
LINE
  5
149
100
AcDbEntity
100
AcDbLine
  8
color#b1bbe8ff
 62
256
370
-1
  6
BYLAYER
 10
5.8164928618682294
 20
0.3513956503293514
 30
0.0
 11
5.376960753244961
 21
0.351677037536651
 31
0.0
  0
LINE
  5
14A
100
AcDbEntity
100
AcDbLine
  8
color#b1bbe8ff
 62
256
370
-1
  6
BYLAYER
 10
5.376960753244961
 20
0.351677037536651
 30
0.0
 11
5.376168778208851
 21
0.37342567072767
 31
0.0
  0
LINE
  5
14B
100
AcDbEntity
100
AcDbLine
  8
color#b1bbe8ff
 62
256
370
-1
  6
BYLAYER
 10
5.376168778208851
 20
0.37342567072767
 30
0.0
 11
5.3781603881749618
 21
0.4602921206946067
 31
0.0
  0
LINE
  5
14C
100
AcDbEntity
100
AcDbLine
  8
color#b1bbe8ff
 62
256
370
-1
  6
BYLAYER
 10
5.3781603881749618
 20
0.4602921206946067
 30
0.0
 11
5.3883780540472666
 21
0.666571125812742
 31
0.0
  0
LINE
  5
14D
100
AcDbEntity
100
AcDbLine
  8
color#b1bbe8ff
 62
256
370
-1
  6
BYLAYER
 10
5.3883780540472666
 20
0.666571125812742
 30
0.0
 11
5.4988943748450243
 21
2.9579092775332536
 31
0.0
  0
LINE
  5
14E
100
AcDbEntity
100
AcDbLine
  8
color#ff6c6cff
 62
256
370
-1
  6
BYLAYER
 10
2.1789258660585977
 20
5.1388634736320338
 30
0.0
 11
2.6330839902554133
 21
5.1399108225877264
 31
0.0
  0
LINE
  5
14F
100
AcDbEntity
100
AcDbLine
  8
color#ff6c6cff
 62
256
370
-1
  6
BYLAYER
 10
2.6330839902554133
 20
5.1399108225877264
 30
0.0
 11
4.081639313800606
 21
5.1386432422366921
 31
0.0
  0
LINE
  5
150
100
AcDbEntity
100
AcDbLine
  8
color#ff6c6cff
 62
256
370
-1
  6
BYLAYER
 10
4.081639313800606
 20
5.1386432422366921
 30
0.0
 11
4.0820037479510454
 21
3.8297094606380337
 31
0.0
  0
LINE
  5
151
100
AcDbEntity
100
AcDbLine
  8
color#ff6c6cff
 62
256
370
-1
  6
BYLAYER
 10
4.0820037479510454
 20
3.8297094606380337
 30
0.0
 11
5.9437678967933385
 21
3.8268438669651474
 31
0.0
  0
LINE
  5
152
100
AcDbEntity
100
AcDbLine
  8
color#ff6c6cff
 62
256
370
-1
  6
BYLAYER
 10
5.9437678967933385
 20
3.8268438669651474
 30
0.0
 11
7.7779275225857765
 21
3.8245456127176078
 31
0.0
  0
LINE
  5
153
100
AcDbEntity
100
AcDbLine
  8
color#ff6c6cff
 62
256
370
-1
  6
BYLAYER
 10
7.7779275225857765
 20
3.8245456127176078
 30
0.0
 11
7.4531410496606201
 21
3.8237183279240514
 31
0.0
  0
LINE
  5
154
100
AcDbEntity
100
AcDbLine
  8
color#ff6c6cff
 62
256
370
-1
  6
BYLAYER
 10
7.4531410496606201
 20
3.8237183279240514
 30
0.0
 11
6.4761190194906959
 21
3.8238564633711825
 31
0.0
  0
LINE
  5
155
100
AcDbEntity
100
AcDbLine
  8
color#ff6c6cff
 62
256
370
-1
  6
BYLAYER
 10
6.4761190194906959
 20
3.8238564633711825
 30
0.0
 11
5.1661044670215617
 21
3.8238769539957276
 31
0.0
  0
LINE
  5
156
100
AcDbEntity
100
AcDbLine
  8
color#ff6c6cff
 62
256
370
-1
  6
BYLAYER
 10
5.1661044670215617
 20
3.8238769539957276
 30
0.0
 11
4.0827320625849026
 21
3.8259800383729705
 31
0.0
  0
LINE
  5
157
100
AcDbEntity
100
AcDbLine
  8
color#ff6c6cff
 62
256
370
-1
  6
BYLAYER
 10
4.0827320625849026
 20
3.8259800383729705
 30
0.0
 11
3.0038407809487691
 21
3.8269096308875441
 31
0.0
  0
LINE
  5
158
100
AcDbEntity
100
AcDbLine
  8
color#ff6c6cff
 62
256
370
-1
  6
BYLAYER
 10
3.0038407809487691
 20
3.8269096308875441
 30
0.0
 11
1.6939167883869795
 21
3.8269163000127002
 31
0.0
  0
LINE
  5
159
100
AcDbEntity
100
AcDbLine
  8
color#ff6c6cff
 62
256
370
-1
  6
BYLAYER
 10
1.6939167883869795
 20
3.8269163000127002
 30
0.0
 11
0.7203870776815272
 21
3.8271245897437143
 31
0.0
  0
LINE
  5
15A
100
AcDbEntity
100
AcDbLine
  8
color#ff6c6cff
 62
256
370
-1
  6
BYLAYER
 10
0.7203870776815272
 20
3.8271245897437143
 30
0.0
 11
0.3750191650250505
 21
3.8272245961692133
 31
0.0
  0
LINE
  5
15B
100
AcDbEntity
100
AcDbLine
  8
color#ff6c6cff
 62
256
370
-1
  6
BYLAYER
 10
0.3750191650250505
 20
3.8272245961692133
 30
0.0
 11
0.376196921032434
 21
5.1067148373413662
 31
0.0
  0
LINE
  5
15C
100
AcDbEntity
100
AcDbLine
  8
color#ff6c6cff
 62
256
370
-1
  6
BYLAYER
 10
0.376196921032434
 20
5.1067148373413662
 30
0.0
 11
0.3903436365710692
 21
5.115059678248131
 31
0.0
  0
LINE
  5
15D
100
AcDbEntity
100
AcDbLine
  8
color#ff6c6cff
 62
256
370
-1
  6
BYLAYER
 10
0.3903436365710692
 20
5.115059678248131
 30
0.0
 11
0.372412807000529
 21
5.1390541316052536
 31
0.0
  0
LINE
  5
15E
100
AcDbEntity
100
AcDbLine
  8
color#ff6c6cff
 62
256
370
-1
  6
BYLAYER
 10
0.372412807000529
 20
5.1390541316052536
 30
0.0
 11
0.7044964673719398
 21
5.1389528435856908
 31
0.0
  0
LINE
  5
15F
100
AcDbEntity
100
AcDbLine
  8
color#ff6c6cff
 62
256
370
-1
  6
BYLAYER
 10
0.7044964673719398
 20
5.1389528435856908
 30
0.0
 11
2.1789258660585977
 21
5.1388634736320338
 31
0.0
  0
ENDSEC
  0
SECTION
  2
OBJECTS
  0
DICTIONARY
  5
C
100
AcDbDictionary
280
0
281
1
  3
ACAD_GROUP
350
D
  3
ACAD_LAYOUT
350
1A
  3
ACAD_MLINESTYLE
350
17
  3
ACAD_PLOTSETTINGS
350
19
  3
ACAD_PLOTSTYLENAME
350
E
  3
AcDbVariableDictionary
350
160
  0
DICTIONARY
  5
D
100
AcDbDictionary
280
0
281
1
  0
ACDBDICTIONARYWDFLT
  5
E
100
AcDbDictionary
281
1
  3
Normal
350
F
100
AcDbDictionaryWithDefault
340
F
  0
ACDBPLACEHOLDER
  5
F
  0
DICTIONARY
  5
17
100
AcDbDictionary
280
0
281
1
  3
Standard
350
18
  0
MLINESTYLE
  5
18
100
AcDbMlineStyle
  2
STANDARD
 70
0
  3

 62
256
 51
90.0
 52
90.0
 71
2
 49
0.5
 62
256
  6
BYLAYER
 49
-0.5
 62
256
  6
BYLAYER
  0
DICTIONARY
  5
19
100
AcDbDictionary
280
0
281
1
  0
DICTIONARY
  5
1A
100
AcDbDictionary
281
1
  3
Layout1
350
1E
  3
Layout2
350
26
  3
Model
350
22
  0
LAYOUT
  5
1E
100
AcDbPlotSettings
  1

  2
C:\Program Files\AutoCAD 2002\plotters\DWF ePlot (optimized for plotting).pc3
  4

  6

 40
0.0
 41
0.0
 42
0.0
 43
0.0
 44
0.0
 45
0.0
 46
0.0
 47
0.0
 48
0.0
 49
0.0
140
0.0
141
0.0
142
1.0
143
1.0
 70
688
 72
0
 73
0
 74
5
  7

 75
16
147
1.0
148
0.0
149
0.0
100
AcDbLayout
  1
Layout1
 70
1
 71
1
 10
0.0
 20
0.0
 11
420.0
 21
297.0
 12
0.0
 22
0.0
 32
0.0
 14
100000000000000000000.0
 24
100000000000000000000.0
 34
100000000000000000000.0
 15
-100000000000000000000.0
 25
-100000000000000000000.0
 35
-100000000000000000000.0
146
0.0
 13
0.0
 23
0.0
 33
0.0
 16
1.0
 26
0.0
 36
0.0
 17
0.0
 27
1.0
 37
0.0
 76
0
330
1B
  0
LAYOUT
  5
22
100
AcDbPlotSettings
  1

  2
C:\Program Files\AutoCAD 2002\plotters\DWF ePlot (optimized for plotting).pc3
  4

  6

 40
0.0
 41
0.0
 42
0.0
 43
0.0
 44
0.0
 45
0.0
 46
0.0
 47
0.0
 48
0.0
 49
0.0
140
0.0
141
0.0
142
1.0
143
1.0
 70
1712
 72
0
 73
0
 74
0
  7

 75
0
147
1.0
148
0.0
149
0.0
100
AcDbLayout
  1
Model
 70
1
 71
0
 10
0.0
 20
0.0
 11
12.0
 21
9.0
 12
0.0
 22
0.0
 32
0.0
 14
0.0
 24
0.0
 34
0.0
 15
0.0
 25
0.0
 35
0.0
146
0.0
 13
0.0
 23
0.0
 33
0.0
 16
1.0
 26
0.0
 36
0.0
 17
0.0
 27
1.0
 37
0.0
 76
0
330
1F
  0
LAYOUT
  5
26
100
AcDbPlotSettings
  1

  2
C:\Program Files\AutoCAD 2002\plotters\DWF ePlot (optimized for plotting).pc3
  4

  6

 40
0.0
 41
0.0
 42
0.0
 43
0.0
 44
0.0
 45
0.0
 46
0.0
 47
0.0
 48
0.0
 49
0.0
140
0.0
141
0.0
142
1.0
143
1.0
 70
688
 72
0
 73
0
 74
5
  7

 75
16
147
1.0
148
0.0
149
0.0
100
AcDbLayout
  1
Layout2
 70
1
 71
2
 10
0.0
 20
0.0
 11
12.0
 21
9.0
 12
0.0
 22
0.0
 32
0.0
 14
0.0
 24
0.0
 34
0.0
 15
0.0
 25
0.0
 35
0.0
146
0.0
 13
0.0
 23
0.0
 33
0.0
 16
1.0
 26
0.0
 36
0.0
 17
0.0
 27
1.0
 37
0.0
 76
0
330
23
  0
DICTIONARY
  5
160
100
AcDbDictionary
281
1
  3
DIMASSOC
350
162
  3
HIDETEXT
350
161
  0
DICTIONARYVAR
  5
161
100
DictionaryVariables
280
0
  1
2
  0
DICTIONARYVAR
  5
162
100
DictionaryVariables
280
0
  1
1
  0
ENDSEC
  0
EOF
