<?xml version="1.0"?>
<svg xmlns="http://www.w3.org/2000/svg" xmlns:xlink="http://www.w3.org/1999/xlink" data-noselect="" viewBox="0 0 800 600" width="1600" height="1200" preserveAspectRatio="none" version="1.1"><defs/> <g id="background" data-noselect=""><rect fill="#ffffff" width="800" height="600" data-noselect="" data-darkreader-inline-fill="" style="--darkreader-inline-fill:#e8e6e3;"/> <!----></g> <g id="shape_XC3anufg94" transform="translate(279.41570663452,241.63333773276497) rotate(0,47.055337721988,50.366662267237) scale(1,1)" filter="" style="cursor: move; opacity: 1;"><g><svg xmlns="http://www.w3.org/2000/svg" xmlns:xlink="http://www.w3.org/1999/xlink" version="1.1" id="&#x56FE;&#x5C42;_1" x="0px" y="0px" width="94.110675443975" height="100.73332453447" viewBox="20.32799530029297 29.573009490966797 143.8211669921875 153.94198608398438" enable-background="new 0 0 200 200" xml:space="preserve" class="style-removed" preserveAspectRatio="none" data-parent="shape_XC3anufg94">
<g>
	<g>
		<path fill="#268CC4" d="M101.72,132.048c-1.162,0-2.339-0.289-3.424-0.901c-17.057-9.614-27.652-27.74-27.652-47.301    c0-29.923,24.345-54.273,54.269-54.273c12.813,0,25.156,4.81,36.688,14.298c2.98,2.451,3.408,6.852,0.957,9.833    c-2.451,2.986-6.854,3.418-9.837,0.955c-8.963-7.37-18.319-11.11-27.808-11.11c-22.217,0-40.292,18.076-40.292,40.296    c0,14.528,7.87,27.985,20.539,35.126c3.362,1.894,4.552,6.158,2.656,9.516C106.531,130.771,104.16,132.048,101.72,132.048z" stroke-width="0" data-darkreader-inline-fill="" style="--darkreader-inline-fill:#1e709d;"/>
	</g>
	<g>
		<path fill="#268CC4" d="M127.259,183.515H77.631c-32.132,0-57.303-23.863-57.303-54.322c0-30.529,25.706-55.37,57.303-55.37    c3.86,0,6.988,3.128,6.988,6.988s-3.128,6.988-6.988,6.988c-23.891,0-43.326,18.568-43.326,41.394    c0,22.624,19.032,40.346,43.326,40.346h49.628c3.86,0,6.988,3.128,6.988,6.988S131.119,183.515,127.259,183.515z" stroke-width="0" data-darkreader-inline-fill="" style="--darkreader-inline-fill:#1e709d;"/>
	</g>
</g>
</svg></g></g><g id="shape_EaogVlim6U" transform="translate(312.83676459596927,145.62586226723505) rotate(0,128.51412213449794,172.24079999999998) scale(1,1)" filter="" style="cursor: move; opacity: 1;"><g><svg xmlns="http://www.w3.org/2000/svg" xmlns:xlink="http://www.w3.org/1999/xlink" version="1.1" width="355.34824426899587" height="344.48159999999996" viewBox="0 0 355.34824426899587 344.48159999999996" data-parent="shape_EaogVlim6U"><g data-width="147.48" transform="translate(49.16, 0)"><path d="M27.97-35.20L44.19-35.20L44.19-31.71L5.56-31.71L5.56-35.20L23.94-35.20Q22.76-37.80 20.94-40.16L20.94-40.16L24.53-41.20Q25.66-39.77 26.69-38.17Q27.73-36.58 28.22-35.30L28.22-35.30L27.97-35.20ZM20.50-24.38L20.50-24.38L17.16-22.91Q16.57-24.38 15.44-26.33Q14.31-28.27 13.03-29.99L13.03-29.99L16.17-31.27Q17.45-29.64 18.66-27.75Q19.86-25.86 20.50-24.38ZM33.48-22.76L45.47-22.76L45.47-19.22L10.03-19.22L10.03-15.98Q10.03-13.08 9.64-9.51Q9.24-5.95 8.14-2.38Q7.03 1.18 4.97 4.13L4.97 4.13Q4.42 3.54 3.49 2.75Q2.56 1.97 1.97 1.57L1.97 1.57Q3.83-1.08 4.79-4.18Q5.75-7.28 6.02-10.40Q6.29-13.52 6.29-16.08L6.29-16.08L6.29-22.76L29.79-22.76Q30.87-24.53 31.98-26.82Q33.08-29.10 33.77-31.02L33.77-31.02L37.71-29.74Q35.64-26.05 33.48-22.76L33.48-22.76Z" transform="translate(0 190.74079999999998) " fill="rgb(75, 169, 220)" stroke="rgb(75, 169, 220)" stroke-width="0.082" data-glyph-w="49.16" data-glyph-h="49.16" data-glyph-ascender="43.260799999999996" data-glyph-descender="-5.8991999999999996"/><path d="M14.90-26.25L34.41-26.25L34.41-35.54L14.90-35.54L14.90-26.25ZM11.36-39.03L38.10-39.03L38.10-22.76L11.36-22.76L11.36-39.03ZM17.99-2.41L17.99-14.06L7.72-14.06L7.72-2.41L17.99-2.41ZM7.72 3.79L4.23 3.79L4.23-17.60L21.58-17.60L21.58 3.34L17.99 3.34L17.99 1.13L7.72 1.13L7.72 3.79ZM30.48-14.06L30.48-2.41L41.64-2.41L41.64-14.06L30.48-14.06ZM26.94 3.79L26.94-17.60L45.23-17.60L45.23 3.44L41.64 3.44L41.64 1.13L30.48 1.13L30.48 3.79L26.94 3.79Z" transform="translate(49.16 190.74079999999998) " fill="rgb(75, 169, 220)" stroke="rgb(75, 169, 220)" stroke-width="0.082" data-glyph-w="49.16" data-glyph-h="49.16" data-glyph-ascender="43.260799999999996" data-glyph-descender="-5.8991999999999996"/><path d="M39.72-18.19L39.72-18.19L42.82-15.93Q38.10-11.90 33.08-8.75L33.08-8.75Q38.69-3.59 46.70-1.33L46.70-1.33Q46.06-0.74 45.40 0.17Q44.74 1.08 44.29 1.87L44.29 1.87Q32.79-2.02 26.35-11.75L26.35-11.75L26.35-0.20Q26.35 1.38 25.91 2.16Q25.46 2.95 24.33 3.34L24.33 3.34Q23.20 3.74 21.31 3.81Q19.42 3.88 16.57 3.88L16.57 3.88Q16.42 3.15 16.05 2.26Q15.68 1.38 15.29 0.64L15.29 0.64Q17.50 0.74 19.27 0.76Q21.04 0.79 21.63 0.74L21.63 0.74Q22.27 0.69 22.49 0.47Q22.71 0.25 22.71-0.25L22.71-0.25L22.71-7.03Q13.17-2.80 5.46 0.44L5.46 0.44L3.54-2.80Q11.36-5.80 22.71-10.47L22.71-10.47L22.71-19.42L3.44-19.42L3.44-22.66L35.64-22.66Q35.79-24.83 35.94-27.14L35.94-27.14L8.21-27.14L8.21-30.48L36.13-30.48Q36.18-31.86 36.23-33.18L36.23-33.18Q36.28-34.17 36.33-35.00L36.33-35.00L6.78-35.00L6.78-38.39L36.77-38.39L37.46-38.54L40.31-38.34Q40.11-30.82 39.38-22.66L39.38-22.66L46.06-22.66L46.06-19.42L26.35-19.42L26.35-17.99Q28.12-14.21 30.87-11.01L30.87-11.01Q33.23-12.63 35.62-14.55Q38.00-16.47 39.72-18.19ZM6.78-15.68L6.78-15.68L9.19-17.85Q11.60-16.52 14.13-14.85Q16.67-13.17 18.24-11.70L18.24-11.70L15.68-9.19Q14.21-10.67 11.70-12.44Q9.19-14.21 6.78-15.68Z" transform="translate(98.32 190.74079999999998) " fill="rgb(75, 169, 220)" stroke="rgb(75, 169, 220)" stroke-width="0.082" data-glyph-w="49.16" data-glyph-h="49.16" data-glyph-ascender="43.260799999999996" data-glyph-descender="-5.8991999999999996"/></g></svg></g></g><g id="shape_mI5FT2hDya" transform="translate(304.50104981742084,154.8857591231323) rotate(0,82.75284109499401,120.03443937179628) scale(1,1)" filter="" style="cursor: move; opacity: 1;"><g><svg xmlns="http://www.w3.org/2000/svg" xmlns:xlink="http://www.w3.org/1999/xlink" version="1.1" width="233.82488821027374" height="240.06887874359256" viewBox="0 0 486 498.97800000000007" data-parent="shape_mI5FT2hDya"><g data-width="201.64000000000004" transform="translate(71, 0)"><path d="M50.48-6.46L53.75-6.46Q54.74-6.46 55.31-7.17L55.31-7.17Q56.02-7.74 56.02-8.80L56.02-8.80L40.40-8.80L40.40 0.14L30.46 0.14L30.46-8.80L14.91-8.80L14.91-0.71L5.04-0.71L5.04-15.83L30.46-15.83L30.46-18.18L6.75-18.18L6.75-34.79L64.18-34.79L64.18-24.85Q64.18-23.50 63.62-22.22L63.62-22.22Q62.98-20.95 62.13-20.09L62.13-20.09Q61.13-19.24 60.00-18.67L60.00-18.67Q58.86-18.18 57.44-18.18L57.44-18.18L40.40-18.18L40.40-15.83L59.78-15.83Q61.06-15.83 62.20-15.34Q63.33-14.84 64.11-13.95Q64.89-13.06 65.36-11.96Q65.82-10.86 65.82-9.66L65.82-9.66L65.82-8.31Q65.82-6.75 65.25-5.25L65.25-5.25Q64.61-3.76 63.55-2.84L63.55-2.84Q62.62-1.92 61.06-1.14L61.06-1.14Q59.50-0.50 58.01-0.50L58.01-0.50L47.43-0.50L50.48-6.46ZM66.74-39.62L66.74-35.86L56.87-35.86L56.87-37.49Q56.87-37.84 56.59-38.20L56.59-38.20Q56.23-38.48 55.95-38.48L55.95-38.48L14.06-38.48L14.06-35.86L4.19-35.86L4.19-45.51L10.93-45.44Q10.58-46.29 10.26-46.86Q9.94-47.43 9.73-47.85L9.73-47.85Q9.51-48.21 9.37-48.56Q9.23-48.92 9.09-49.06L9.09-49.06L8.80-49.70Q8.66-49.98 8.59-50.20L8.59-50.20L18.74-50.20Q19.17-49.35 19.45-48.71Q19.74-48.07 20.09-47.43L20.09-47.43Q20.38-46.86 20.59-46.40Q20.80-45.94 21.02-45.51L21.02-45.51L30.46-45.44L30.46-51.26L40.40-51.26L40.40-45.51L49.91-45.44Q50.06-45.87 50.27-46.29Q50.48-46.72 50.84-47.36L50.84-47.36Q51.12-48.00 51.48-48.67Q51.83-49.35 52.19-50.20L52.19-50.20L62.34-50.20Q62.27-49.98 62.05-49.70L62.05-49.70Q61.98-49.56 61.95-49.42Q61.91-49.27 61.77-49.13L61.77-49.13Q61.70-48.92 61.56-48.60Q61.42-48.28 61.27-47.93L61.27-47.93Q60.99-47.50 60.71-46.90Q60.42-46.29 60.00-45.51L60.00-45.51L60.85-45.44Q62.13-45.30 63.19-44.94Q64.26-44.59 65.11-43.74L65.11-43.74Q66.74-42.10 66.74-39.62L66.74-39.62ZM16.69-28.05L16.69-24.85L52.54-24.85Q53.18-24.85 53.68-25.28L53.68-25.28Q54.17-25.77 54.17-26.41L54.17-26.41L54.17-28.05L16.69-28.05Z" transform="translate(0 273.98900000000003) " fill="#268cc4" stroke="#268cc4" stroke-width="0.118" data-glyph-w="71.00000000000001" data-glyph-h="71.00000000000001" data-glyph-ascender="60.989000000000004" data-glyph-descender="-10.011000000000001" data-darkreader-inline-fill="" data-darkreader-inline-stroke="" style="--darkreader-inline-fill:#4ba9dc; --darkreader-inline-stroke:#4ba9dc;"/><path d="M63.83-43.59L38.48-43.59L38.48-41.89L60.71-41.89L60.71-36.42L38.48-36.42L38.48-34.79L63.83-34.79L63.83-29.32L1.49-29.32L1.49-34.79L26.84-34.79L26.84-36.42L4.62-36.42L4.62-41.89L26.84-41.89L26.84-43.59L1.49-43.59L1.49-49.06L26.84-49.06L26.84-51.19L38.48-51.19L38.48-49.06L63.83-49.06L63.83-43.59ZM45.09-4.62L48.56-4.62Q49.56-4.62 50.20-5.25Q50.84-5.89 50.84-6.82L50.84-6.82L50.84-7.67L14.41-7.67L14.41-7.46L14.41-5.40L14.41 0.07L4.62 0.07L4.62-27.41L53.96-27.41Q55.31-27.41 56.55-26.87Q57.79-26.34 58.72-25.42Q59.64-24.50 60.17-23.25Q60.71-22.01 60.71-20.66L60.71-20.66L60.71-7.74Q60.71-6.11 60.07-4.69Q59.43-3.27 58.36-2.20Q57.30-1.14 55.88-0.53Q54.46 0.07 52.90 0.07L52.90 0.07L48.21 0.07L45.09-4.62ZM14.41-21.94L14.41-19.74L50.84-19.74L50.84-20.59Q50.84-21.16 50.45-21.55Q50.06-21.94 49.49-21.94L49.49-21.94L14.41-21.94ZM14.41-12.50L50.84-12.50L50.84-14.91L14.41-14.91L14.41-12.50Z" transform="translate(71.00000000000001 273.98900000000003) " fill="#268cc4" stroke="#268cc4" stroke-width="0.118" data-glyph-w="65.32000000000001" data-glyph-h="71.00000000000001" data-glyph-ascender="60.989000000000004" data-glyph-descender="-10.011000000000001" data-darkreader-inline-fill="" data-darkreader-inline-stroke="" style="--darkreader-inline-fill:#4ba9dc; --darkreader-inline-stroke:#4ba9dc;"/><path d="M46.08-13.92L51.83-13.92L49.35-9.09L42.67-9.09Q40.12-9.09 38.34-10.65Q36.57-12.21 36.57-14.48L36.57-14.48L36.57-23.43L28.26-23.43L23.71-9.09L15.90-9.09L20.45-23.43L13.49-23.43L13.49-29.82L51.76-29.82L51.76-23.43L44.30-23.43L44.30-15.48Q44.30-14.84 44.80-14.38Q45.30-13.92 46.08-13.92L46.08-13.92ZM47.36-40.47L47.36-34.15L17.89-34.15L17.89-40.47L47.36-40.47ZM48.00 0.07L10.58 0.07L1.42 0.07L1.42-51.19L63.83-51.19L63.83-7.74Q63.83-6.11 63.19-4.69Q62.55-3.27 61.49-2.20Q60.42-1.14 59.00-0.53Q57.58 0.07 56.02 0.07L56.02 0.07L50.91 0.07L48.00 0.07ZM10.58-44.16L10.58-6.96L50.91-6.96L52.40-6.96Q53.39-6.96 54.03-7.60Q54.67-8.24 54.67-9.23L54.67-9.23L54.67-44.16L10.58-44.16Z" transform="translate(136.32000000000002 273.98900000000003) " fill="#268cc4" stroke="#268cc4" stroke-width="0.118" data-glyph-w="65.32000000000001" data-glyph-h="71.00000000000001" data-glyph-ascender="60.989000000000004" data-glyph-descender="-10.011000000000001" data-darkreader-inline-fill="" data-darkreader-inline-stroke="" style="--darkreader-inline-fill:#4ba9dc; --darkreader-inline-stroke:#4ba9dc;"/></g></svg></g></g>  <!----></svg>
