<?xml version="1.0" standalone="yes"?>
<svg xmlns="http://www.w3.org/2000/svg" width="1500" height="1500">
<path style="fill:#000000; stroke:none;" d="M0 0L0 1500L1500 1500L1500 0L0 0z"/>
<path style="fill:#ffffff; stroke:none;" d="M714 131.424C706.07 132.466 697.974 132.398 690 133.17C663.549 135.729 636.882 139.75 611 145.884C501.831 171.758 401.217 225.379 320 303.039C264.93 355.698 219.403 419.743 187.691 489C111.447 655.514 111.221 852.586 191.258 1018C218.685 1074.68 254.68 1125.4 296.83 1172C333.942 1213.03 378.559 1249.12 426 1277.6C476.214 1307.74 530.215 1332.19 587 1347.12C665.447 1367.74 747.494 1373.73 828 1363.72C959.263 1347.38 1083.51 1287.27 1179 1195.96C1291.24 1088.64 1361.16 936.277 1367.96 781C1371.08 709.882 1362.83 638.218 1342.28 570C1279.92 362.96 1108.39 200.974 899 148.627C852.521 137.007 804.844 131 757 131C742.915 131 727.969 129.59 714 131.424z"/>
<path style="fill:#000000; stroke:none;" d="M720 259.424C702.365 261.74 684.632 262.478 667 265.435C627.738 272.019 588.278 283.232 552 299.769C540.203 305.147 528.474 310.727 517 316.781C513.03 318.875 506.435 321.357 504.028 325.329C501.754 329.079 503 335.778 503 340L503 374L503 503L503 982L503 1125L503 1161C503 1165.23 501.731 1171.96 504.603 1175.47C509.271 1181.17 519.53 1184.52 526 1187.75C543.607 1196.56 561.398 1204.82 580 1211.34C654.922 1237.6 732.103 1246.31 811 1237.83C878.826 1230.55 945.681 1206.12 1004 1171.2C1050.73 1143.22 1093.08 1106.96 1127.75 1065C1157.73 1028.72 1183.08 988.332 1201.57 945C1268.12 789.052 1249.44 606.038 1152.28 467C1122.98 425.066 1086.79 387.961 1046 357.13C1000.38 322.645 947.933 295.644 893 279.576C848.67 266.609 803.212 259 757 259C744.859 259 732.044 257.843 720 259.424M379 427C258.071 565.527 226.382 764.961 294.4 935C308.855 971.136 327.956 1005.34 350.579 1037C359.08 1048.9 368.333 1064.08 380 1073L380 615L380 483L380 445C380 439.381 381.189 432.217 379 427z"/>
</svg>
